<svg width="100" height="100" viewBox="0 0 100 100" fill="none" xmlns="http://www.w3.org/2000/svg">
<path d="M55.83 67.9768H51.28V59.2349C60.5621 58.5948 67.9168 51.0927 67.9168 41.9399C67.9168 32.3686 59.8795 24.582 50 24.582C40.1205 24.582 32.0835 32.3689 32.0835 41.9399C32.0835 51.0927 39.4386 58.5948 48.7204 59.2349V67.9768H44.2413C43.5347 67.9768 42.9617 68.5319 42.9617 69.2165C42.9617 69.9011 43.5347 70.4562 44.2413 70.4562H48.7204V74.1756C48.7204 74.8602 49.2934 75.4154 50 75.4154C50.7067 75.4154 51.2796 74.8602 51.2796 74.1756V70.4562H55.8293C56.536 70.4562 57.109 69.9011 57.109 69.2165C57.109 68.5319 56.5366 67.9768 55.83 67.9768ZM50.0003 56.8181C41.5325 56.8181 34.6431 50.1435 34.6431 41.9399C34.6431 33.7363 41.5325 27.0618 50.0003 27.0618C58.4681 27.0618 65.3576 33.7363 65.3576 41.9399C65.3576 50.1435 58.4681 56.8181 50.0003 56.8181Z" fill="#FC94AF"/>
<rect x="0.75" y="0.75" width="98.5" height="98.5" rx="19.25" stroke="#FC94AF" stroke-width="1.5"/>
</svg>
