<svg width="124" height="124" viewBox="0 0 124 124" fill="none" xmlns="http://www.w3.org/2000/svg">
<path d="M2 22C2 10.9543 10.9543 2 22 2H102C113.046 2 122 10.9543 122 22V102C122 113.046 113.046 122 102 122H22C10.9543 122 2 113.046 2 102V22Z" fill="#FAF8FF"/>
<path d="M68.9958 83.5737H63.5358V73.0834C74.6743 72.3153 83.5 63.3127 83.5 52.3295C83.5 40.8439 73.8552 31.5 61.9998 31.5C50.1444 31.5 40.5 40.8443 40.5 52.3295C40.5 63.3127 49.3261 72.3153 60.4642 73.0834V83.5737H55.0894C54.2414 83.5737 53.5538 84.2398 53.5538 85.0613C53.5538 85.8829 54.2414 86.549 55.0894 86.549H60.4642V91.0123C60.4642 91.8339 61.1518 92.5 61.9998 92.5C62.8478 92.5 63.5354 91.8339 63.5354 91.0123V86.549H68.995C69.843 86.549 70.5306 85.8829 70.5306 85.0613C70.5306 84.2398 69.8437 83.5737 68.9958 83.5737ZM62.0002 70.1832C51.8389 70.1832 43.5715 62.1738 43.5715 52.3295C43.5715 42.4851 51.8389 34.4757 62.0002 34.4757C72.1615 34.4757 80.4289 42.4851 80.4289 52.3295C80.4289 62.1738 72.1615 70.1832 62.0002 70.1832Z" fill="#6A92FF"/>
<path d="M22 3.2H102V0.8H22V3.2ZM120.8 22V102H123.2V22H120.8ZM102 120.8H22V123.2H102V120.8ZM3.2 102V22H0.8V102H3.2ZM22 120.8C11.617 120.8 3.2 112.383 3.2 102H0.8C0.8 113.708 10.2916 123.2 22 123.2V120.8ZM120.8 102C120.8 112.383 112.383 120.8 102 120.8V123.2C113.708 123.2 123.2 113.708 123.2 102H120.8ZM102 3.2C112.383 3.2 120.8 11.617 120.8 22H123.2C123.2 10.2916 113.708 0.8 102 0.8V3.2ZM22 0.8C10.2916 0.8 0.8 10.2916 0.8 22H3.2C3.2 11.617 11.617 3.2 22 3.2V0.8Z" fill="#6A92FF"/>
</svg>
