<svg width="120" height="120" viewBox="0 0 120 120" fill="none" xmlns="http://www.w3.org/2000/svg">
<path d="M0 20C0 8.95431 8.95431 0 20 0H100C111.046 0 120 8.95431 120 20V100C120 111.046 111.046 120 100 120H20C8.95431 120 0 111.046 0 100V20Z" fill="#F5F5F5"/>
<path d="M66.9958 81.5737H61.5358V71.0834C72.6743 70.3153 81.5 61.3127 81.5 50.3295C81.5 38.8439 71.8552 29.5 59.9998 29.5C48.1444 29.5 38.5 38.8443 38.5 50.3295C38.5 61.3127 47.3261 70.3153 58.4642 71.0834V81.5737H53.0894C52.2414 81.5737 51.5538 82.2398 51.5538 83.0613C51.5538 83.8829 52.2414 84.549 53.0894 84.549H58.4642V89.0123C58.4642 89.8339 59.1518 90.5 59.9998 90.5C60.8478 90.5 61.5354 89.8339 61.5354 89.0123V84.549H66.995C67.843 84.549 68.5306 83.8829 68.5306 83.0613C68.5306 82.2398 67.8437 81.5737 66.9958 81.5737ZM60.0002 68.1832C49.8389 68.1832 41.5715 60.1738 41.5715 50.3295C41.5715 40.4851 49.8389 32.4757 60.0002 32.4757C70.1615 32.4757 78.4289 40.4851 78.4289 50.3295C78.4289 60.1738 70.1615 68.1832 60.0002 68.1832Z" fill="#33343C" fill-opacity="0.6"/>
</svg>
