<svg width="120" height="120" viewBox="0 0 120 120" fill="none" xmlns="http://www.w3.org/2000/svg">
<path d="M0 20C0 8.95431 8.95431 0 20 0H100C111.046 0 120 8.95431 120 20V100C120 111.046 111.046 120 100 120H20C8.95431 120 0 111.046 0 100V20Z" fill="#F5F5F5"/>
<path d="M85.8856 35.427C85.7349 35.0602 85.4455 34.768 85.0825 34.6158C84.9009 34.5401 84.7082 34.5 84.5148 34.5H74.1818C73.3614 34.5 72.6962 35.1716 72.6962 35.9998C72.6962 36.8281 73.3614 37.4997 74.1818 37.4997H80.9281L69.3498 49.1892C69.2898 49.2497 69.2622 49.327 69.2148 49.3945C65.4726 45.7533 60.3962 43.4998 54.8003 43.4998C43.3308 43.4998 34 52.9203 34 64.4999C34 76.0795 43.3308 85.5 54.8003 85.5C66.2698 85.5 75.6006 76.0795 75.6006 64.4999C75.6006 59.6035 73.9187 55.104 71.1258 51.5285C71.2384 51.4635 71.3549 51.4074 71.4509 51.3105L83.0289 39.6214V46.4999C83.0289 47.3281 83.694 47.9997 84.5144 47.9997C85.3348 47.9997 86 47.3281 86 46.4999V36.0002C86 35.8046 85.9607 35.61 85.8856 35.427ZM72.6287 64.4999C72.6287 74.4249 64.6305 82.4999 54.7999 82.4999C44.9694 82.4999 36.9712 74.4249 36.9712 64.4999C36.9712 54.5749 44.9694 46.4999 54.7999 46.4999C64.6305 46.4999 72.6287 54.5749 72.6287 64.4999Z" fill="#33343C" fill-opacity="0.6"/>
</svg>
