<svg width="124" height="124" viewBox="0 0 124 124" fill="none" xmlns="http://www.w3.org/2000/svg">
<path d="M2 22C2 10.9543 10.9543 2 22 2H102C113.046 2 122 10.9543 122 22V102C122 113.046 113.046 122 102 122H22C10.9543 122 2 113.046 2 102V22Z" fill="#FAF8FF"/>
<path d="M87.8856 37.427C87.7349 37.0602 87.4455 36.768 87.0825 36.6158C86.9009 36.5401 86.7082 36.5 86.5148 36.5H76.1818C75.3614 36.5 74.6962 37.1716 74.6962 37.9998C74.6962 38.8281 75.3614 39.4997 76.1818 39.4997H82.9281L71.3498 51.1892C71.2898 51.2497 71.2622 51.327 71.2148 51.3945C67.4726 47.7533 62.3962 45.4998 56.8003 45.4998C45.3308 45.4998 36 54.9203 36 66.4999C36 78.0795 45.3308 87.5 56.8003 87.5C68.2698 87.5 77.6006 78.0795 77.6006 66.4999C77.6006 61.6035 75.9187 57.104 73.1258 53.5285C73.2384 53.4635 73.3549 53.4074 73.4509 53.3105L85.0288 41.6214V48.4999C85.0288 49.3281 85.694 49.9997 86.5144 49.9997C87.3348 49.9997 88 49.3281 88 48.4999V38.0002C88 37.8046 87.9607 37.61 87.8856 37.427ZM74.6287 66.4999C74.6287 76.4249 66.6305 84.4999 56.7999 84.4999C46.9694 84.4999 38.9712 76.4249 38.9712 66.4999C38.9712 56.5749 46.9694 48.4999 56.7999 48.4999C66.6305 48.4999 74.6287 56.5749 74.6287 66.4999Z" fill="#6A92FF"/>
<path d="M22 3.2H102V0.8H22V3.2ZM120.8 22V102H123.2V22H120.8ZM102 120.8H22V123.2H102V120.8ZM3.2 102V22H0.8V102H3.2ZM22 120.8C11.617 120.8 3.2 112.383 3.2 102H0.8C0.8 113.708 10.2916 123.2 22 123.2V120.8ZM120.8 102C120.8 112.383 112.383 120.8 102 120.8V123.2C113.708 123.2 123.2 113.708 123.2 102H120.8ZM102 3.2C112.383 3.2 120.8 11.617 120.8 22H123.2C123.2 10.2916 113.708 0.8 102 0.8V3.2ZM22 0.8C10.2916 0.8 0.8 10.2916 0.8 22H3.2C3.2 11.617 11.617 3.2 22 3.2V0.8Z" fill="#6A92FF"/>
</svg>
