<svg width="100" height="100" viewBox="0 0 100 100" fill="none" xmlns="http://www.w3.org/2000/svg">
<path d="M71.5715 29.5225C71.4459 29.2168 71.2047 28.9734 70.9023 28.8465C70.7509 28.7834 70.5903 28.75 70.4291 28.75H61.8183C61.1347 28.75 60.5804 29.3097 60.5804 29.9999C60.5804 30.6901 61.1347 31.2497 61.8183 31.2497H67.4402L57.7916 40.991C57.7417 41.0414 57.7187 41.1058 57.6792 41.1621C54.5606 38.1278 50.3303 36.2499 45.6671 36.2499C36.1092 36.2499 28.3335 44.1002 28.3335 53.7499C28.3335 63.3996 36.1092 71.25 45.6671 71.25C55.225 71.25 63.0006 63.3996 63.0006 53.7499C63.0006 49.6696 61.599 45.92 59.2717 42.9404C59.3655 42.8862 59.4626 42.8395 59.5426 42.7588L69.1909 33.0178V38.7499C69.1909 39.4401 69.7452 39.9998 70.4288 39.9998C71.1125 39.9998 71.6668 39.4401 71.6668 38.7499V30.0002C71.6668 29.8371 71.634 29.675 71.5715 29.5225ZM60.5241 53.7499C60.5241 62.0207 53.8589 68.7499 45.6668 68.7499C37.4746 68.7499 30.8095 62.0207 30.8095 53.7499C30.8095 45.4791 37.4746 38.7499 45.6668 38.7499C53.8589 38.7499 60.5241 45.4791 60.5241 53.7499Z" fill="#FC94AF"/>
<rect x="0.75" y="0.75" width="98.5" height="98.5" rx="19.25" stroke="#FC94AF" stroke-width="1.5"/>
</svg>
