<svg width="120" height="120" viewBox="0 0 120 120" fill="none" xmlns="http://www.w3.org/2000/svg">
<circle cx="60" cy="60" r="60" fill="#DBDBDB"/>
<path d="M73 63.483C73 65.9435 72.3897 68.204 71.169 70.2646C69.9484 72.3252 68.331 73.9706 66.3169 75.2008C64.3028 76.4003 62.1972 77 60 77C57.5892 77 55.392 76.4003 53.4085 75.2008C51.4249 74.0014 49.8533 72.3713 48.6937 70.3107C47.5646 68.2501 47 65.9742 47 63.483V43H51.0739V63.4369C51.0739 65.2515 51.4554 66.8815 52.2183 68.327C53.0117 69.7417 54.0798 70.8489 55.4225 71.6486C56.7958 72.4482 58.3216 72.848 60 72.848C61.5563 72.848 63.0211 72.4482 64.3944 71.6486C65.7676 70.8182 66.8662 69.6956 67.6901 68.2809C68.5141 66.8354 68.9261 65.2207 68.9261 63.4369V43H73V63.483Z" fill="#A2A5A7"/>
</svg>
