<svg width="24" height="24" viewBox="0 0 24 24" fill="none" xmlns="http://www.w3.org/2000/svg">
<path d="M9.56569 6.56569L10.1314 6L9 4.86863L8.43431 5.43431L9.56569 6.56569ZM3 12L2.43431 11.4343L1.86863 12L2.43431 12.5657L3 12ZM8.43431 18.5657L9 19.1314L10.1314 18L9.56569 17.4343L8.43431 18.5657ZM21 12.8H21.8V11.2H21V12.8ZM8.43431 5.43431L2.43431 11.4343L3.56569 12.5657L9.56569 6.56569L8.43431 5.43431ZM2.43431 12.5657L8.43431 18.5657L9.56569 17.4343L3.56569 11.4343L2.43431 12.5657ZM3 12.8H21V11.2H3V12.8Z" fill="#33343C"/>
</svg>
