<svg width="21" height="42" viewBox="0 0 21 42" fill="none" xmlns="http://www.w3.org/2000/svg">
<path d="M19.7157 25.5711L19.7161 25.5716C19.7491 25.6114 19.792 25.6636 19.8363 25.7174C19.886 25.7778 19.9373 25.8402 19.9781 25.8893C20.1467 26.0931 20.2534 26.341 20.2856 26.6035C20.3177 26.8662 20.2739 27.1326 20.1593 27.3711L20.1589 27.3719C19.9141 27.8838 19.3948 28.2127 18.7783 28.2127H2.23066C1.60898 28.2127 1.08653 27.8821 0.843263 27.3695L0.842573 27.3681C0.728463 27.1296 0.685054 26.8635 0.717482 26.6011C0.74991 26.3388 0.856818 26.0912 1.02555 25.8877L1.02557 25.8877L1.02849 25.8842C1.10485 25.7903 1.17998 25.6997 1.25557 25.6086L1.28755 25.57L1.28766 25.5699L1.30385 25.5503C1.88462 24.8493 2.40559 24.2205 2.76086 23.2405C3.11559 22.262 3.29423 20.9696 3.29423 18.9295C3.29423 17.1627 3.64801 15.7478 4.33154 14.6371C5.01227 13.5309 6.04433 12.6867 7.47278 12.0986L7.50034 12.0873L7.52635 12.0727C7.59127 12.0365 7.64966 11.9896 7.69913 11.9341L7.77307 11.8511L7.80489 11.7446C8.2185 10.361 9.32302 9.5 10.5016 9.5C11.6801 9.5 12.7851 10.361 13.1987 11.7461L13.2291 11.8477L13.2981 11.9283C13.349 11.9878 13.4102 12.0378 13.4787 12.0759L13.5043 12.0901L13.5315 12.1013C14.758 12.6059 15.6631 13.2771 16.3273 14.1455L16.3275 14.1459C17.2286 15.3218 17.7094 16.9195 17.7094 18.9311C17.7094 20.9705 17.8883 22.2625 18.2432 23.241C18.598 24.2194 19.1179 24.8482 19.697 25.5486L19.7157 25.5711ZM12.4429 31.9628C11.8561 32.3137 11.1853 32.4994 10.5016 32.5C9.81796 32.4993 9.14723 32.3136 8.56052 31.9627C8.1169 31.6973 7.73382 31.3449 7.43331 30.9286H13.5703C13.2698 31.345 12.8866 31.6974 12.4429 31.9628ZM14.0855 30.9286C14.0855 30.9286 14.0854 30.9286 14.0854 30.9286H14.0855Z" stroke="#33343C" stroke-opacity="0.7"/>
</svg>
