<svg width="21" height="42" viewBox="0 0 21 42" fill="none" xmlns="http://www.w3.org/2000/svg">
<mask id="path-1-inside-1_424_13562" fill="white">
<path d="M20.3615 25.5702C20.2726 25.463 20.1853 25.3559 20.0996 25.2525C18.921 23.827 18.2079 22.9666 18.2079 18.9311C18.2079 16.8418 17.7081 15.1275 16.7229 13.8418C15.9965 12.892 15.0146 12.1714 13.7203 11.6389C13.7036 11.6297 13.6887 11.6175 13.6763 11.603C13.2108 10.0441 11.9369 9 10.5001 9C9.0633 9 7.78991 10.0441 7.32438 11.6014C7.31195 11.6154 7.29729 11.6271 7.28098 11.6363C4.26063 12.8796 2.79277 15.2652 2.79277 18.9295C2.79277 22.9666 2.0808 23.827 0.901161 25.2509C0.815447 25.3543 0.728125 25.4593 0.639197 25.5686C0.409483 25.8456 0.26394 26.1826 0.219793 26.5398C0.175646 26.897 0.234743 27.2593 0.39009 27.5839C0.720625 28.2804 1.42509 28.7127 2.2292 28.7127H18.7769C19.5772 28.7127 20.2769 28.2809 20.6085 27.5877C20.7645 27.263 20.8242 26.9003 20.7804 26.5428C20.7366 26.1852 20.5912 25.8477 20.3615 25.5702ZM10.5001 33C11.2742 32.9994 12.0337 32.7892 12.6981 32.3919C13.3625 31.9945 13.9069 31.4248 14.2737 30.743C14.2909 30.7104 14.2995 30.6738 14.2984 30.6368C14.2974 30.5999 14.2868 30.5638 14.2677 30.5322C14.2486 30.5005 14.2217 30.4744 14.1895 30.4562C14.1573 30.4381 14.121 30.4285 14.084 30.4286H6.91723C6.88023 30.4284 6.84382 30.4379 6.81156 30.456C6.77929 30.4741 6.75227 30.5003 6.73312 30.532C6.71397 30.5636 6.70335 30.5997 6.70228 30.6367C6.70122 30.6737 6.70975 30.7103 6.72705 30.743C7.09377 31.4247 7.63812 31.9944 8.30238 32.3917C8.96664 32.7891 9.72605 32.9993 10.5001 33Z"/>
</mask>
<path d="M20.3615 25.5702C20.2726 25.463 20.1853 25.3559 20.0996 25.2525C18.921 23.827 18.2079 22.9666 18.2079 18.9311C18.2079 16.8418 17.7081 15.1275 16.7229 13.8418C15.9965 12.892 15.0146 12.1714 13.7203 11.6389C13.7036 11.6297 13.6887 11.6175 13.6763 11.603C13.2108 10.0441 11.9369 9 10.5001 9C9.0633 9 7.78991 10.0441 7.32438 11.6014C7.31195 11.6154 7.29729 11.6271 7.28098 11.6363C4.26063 12.8796 2.79277 15.2652 2.79277 18.9295C2.79277 22.9666 2.0808 23.827 0.901161 25.2509C0.815447 25.3543 0.728125 25.4593 0.639197 25.5686C0.409483 25.8456 0.26394 26.1826 0.219793 26.5398C0.175646 26.897 0.234743 27.2593 0.39009 27.5839C0.720625 28.2804 1.42509 28.7127 2.2292 28.7127H18.7769C19.5772 28.7127 20.2769 28.2809 20.6085 27.5877C20.7645 27.263 20.8242 26.9003 20.7804 26.5428C20.7366 26.1852 20.5912 25.8477 20.3615 25.5702ZM10.5001 33C11.2742 32.9994 12.0337 32.7892 12.6981 32.3919C13.3625 31.9945 13.9069 31.4248 14.2737 30.743C14.2909 30.7104 14.2995 30.6738 14.2984 30.6368C14.2974 30.5999 14.2868 30.5638 14.2677 30.5322C14.2486 30.5005 14.2217 30.4744 14.1895 30.4562C14.1573 30.4381 14.121 30.4285 14.084 30.4286H6.91723C6.88023 30.4284 6.84382 30.4379 6.81156 30.456C6.77929 30.4741 6.75227 30.5003 6.73312 30.532C6.71397 30.5636 6.70335 30.5997 6.70228 30.6367C6.70122 30.6737 6.70975 30.7103 6.72705 30.743C7.09377 31.4247 7.63812 31.9944 8.30238 32.3917C8.96664 32.7891 9.72605 32.9993 10.5001 33Z" fill="#A180FF"/>
<path d="M20.0996 25.2525L19.3288 25.8897L19.3297 25.8907L20.0996 25.2525ZM16.7229 13.8418L15.9286 14.4493L15.9292 14.45L16.7229 13.8418ZM13.7203 11.6389L13.2341 12.5128L13.2855 12.5414L13.3398 12.5637L13.7203 11.6389ZM13.6763 11.603L12.7182 11.8892L12.7789 12.0925L12.9169 12.2536L13.6763 11.603ZM7.32438 11.6014L8.07096 12.2667L8.21883 12.1008L8.28248 11.8878L7.32438 11.6014ZM7.28098 11.6363L7.66166 12.561L7.71676 12.5383L7.76878 12.5092L7.28098 11.6363ZM0.901161 25.2509L1.67101 25.8891L1.67123 25.8889L0.901161 25.2509ZM0.639197 25.5686L1.40901 26.2069L1.41485 26.1997L0.639197 25.5686ZM0.39009 27.5839L1.29351 27.1552L1.29213 27.1523L0.39009 27.5839ZM20.6085 27.5877L19.7071 27.1546L19.7064 27.1561L20.6085 27.5877ZM10.5001 33L10.4992 34L10.5009 34L10.5001 33ZM14.2737 30.743L15.1543 31.2168L15.1577 31.2105L14.2737 30.743ZM14.084 30.4286V31.4286H14.085L14.084 30.4286ZM6.91723 30.4286L6.91372 31.4286H6.91723V30.4286ZM6.72705 30.743L5.84304 31.2106L5.84641 31.2168L6.72705 30.743ZM21.131 24.9315C21.0183 24.7957 20.9863 24.7553 20.8694 24.6143L19.3297 25.8907C19.3842 25.9565 19.5269 26.1304 19.592 26.2088L21.131 24.9315ZM20.8703 24.6153C20.2755 23.8959 19.9113 23.445 19.6519 22.7296C19.3849 21.9934 19.2079 20.9055 19.2079 18.9311H17.2079C17.2079 20.9922 17.3875 22.3522 17.7717 23.4115C18.1634 24.4915 18.745 25.1835 19.3288 25.8897L20.8703 24.6153ZM19.2079 18.9311C19.2079 16.6863 18.6702 14.7389 17.5167 13.2336L15.9292 14.45C16.7461 15.5161 17.2079 16.9972 17.2079 18.9311H19.2079ZM17.5173 13.2343C16.6663 12.1217 15.5306 11.3024 14.1007 10.7141L13.3398 12.5637C14.4985 13.0405 15.3267 13.6622 15.9286 14.4493L17.5173 13.2343ZM14.2064 10.765C14.2934 10.8134 14.3711 10.8769 14.4358 10.9525L12.9169 12.2536C13.0064 12.3581 13.1138 12.4459 13.2341 12.5128L14.2064 10.765ZM14.6345 11.3169C14.0652 9.41032 12.4534 8 10.5001 8V10C11.4203 10 12.3564 10.6779 12.7182 11.8892L14.6345 11.3169ZM10.5001 8C8.54679 8 6.93567 9.41024 6.36627 11.315L8.28248 11.8878C8.64415 10.678 9.57981 10 10.5001 10V8ZM6.57779 10.9361C6.63945 10.8669 6.71225 10.8085 6.79318 10.7633L7.76878 12.5092C7.88232 12.4458 7.98445 12.3638 8.07096 12.2667L6.57779 10.9361ZM6.90031 10.7115C5.22668 11.4005 3.92464 12.4338 3.05258 13.8509C2.18611 15.259 1.79277 16.9666 1.79277 18.9295H3.79277C3.79277 17.2281 4.13336 15.9108 4.7559 14.8991C5.37286 13.8965 6.31492 13.1154 7.66166 12.561L6.90031 10.7115ZM1.79277 18.9295C1.79277 20.9049 1.61607 21.9932 1.3492 22.7293C1.08999 23.4443 0.726014 23.8948 0.131091 24.6129L1.67123 25.8889C2.25595 25.183 2.83778 24.4914 3.22946 23.411C3.61348 22.3517 3.79277 20.9912 3.79277 18.9295H1.79277ZM0.131308 24.6127C0.0470307 24.7143 -0.0439095 24.8237 -0.136452 24.9374L1.41485 26.1997C1.50016 26.0949 1.58386 25.9942 1.67101 25.8891L0.131308 24.6127ZM-0.130587 24.9303C-0.482257 25.3544 -0.705069 25.8704 -0.772654 26.4171L1.21224 26.6625C1.23295 26.4949 1.30122 26.3368 1.40898 26.2069L-0.130587 24.9303ZM-0.772654 26.4171C-0.840239 26.9639 -0.749767 27.5186 -0.511946 28.0156L1.29213 27.1523C1.21925 27 1.19153 26.83 1.21224 26.6625L-0.772654 26.4171ZM-0.513322 28.0127C-0.0082553 29.0769 1.06024 29.7127 2.2292 29.7127V27.7127C1.78994 27.7127 1.44951 27.4839 1.2935 27.1552L-0.513322 28.0127ZM2.2292 29.7127H18.7769V27.7127H2.2292V29.7127ZM18.7769 29.7127C19.945 29.7127 21.0055 29.0752 21.5106 28.0192L19.7064 27.1561C19.5483 27.4866 19.2095 27.7127 18.7769 27.7127V29.7127ZM21.5098 28.0208C21.7487 27.5237 21.84 26.9686 21.773 26.4213L19.7878 26.6643C19.8083 26.8321 19.7803 27.0022 19.7071 27.1546L21.5098 28.0208ZM21.773 26.4213C21.706 25.8739 21.4835 25.3572 21.1318 24.9325L19.5912 26.2079C19.699 26.3381 19.7673 26.4965 19.7878 26.6643L21.773 26.4213ZM10.5009 34C11.4555 33.9992 12.3921 33.7401 13.2114 33.2501L12.1848 31.5337C11.6753 31.8384 11.0929 31.9995 10.4993 32L10.5009 34ZM13.2114 33.2501C14.0307 32.7601 14.702 32.0575 15.1543 31.2168L13.393 30.2693C13.1118 30.792 12.6943 31.229 12.1848 31.5337L13.2114 33.2501ZM15.1577 31.2105C15.2556 31.0254 15.3039 30.8181 15.298 30.6087L13.2988 30.6649C13.295 30.5295 13.3263 30.3953 13.3897 30.2755L15.1577 31.2105ZM15.298 30.6087C15.2922 30.3994 15.2322 30.1951 15.1241 30.0158L13.4114 31.0486C13.3414 30.9326 13.3026 30.8004 13.2988 30.6649L15.298 30.6087ZM15.1241 30.0158C15.0159 29.8364 14.8632 29.6881 14.6808 29.5852L13.6982 31.3272C13.5802 31.2606 13.4814 31.1647 13.4114 31.0486L15.1241 30.0158ZM14.6808 29.5852C14.4984 29.4823 14.2924 29.4284 14.083 29.4286L14.085 31.4286C13.9495 31.4287 13.8163 31.3938 13.6982 31.3272L14.6808 29.5852ZM14.084 29.4286H6.91723V31.4286H14.084V29.4286ZM6.92074 29.4286C6.71104 29.4278 6.50474 29.4814 6.32191 29.5841L7.3012 31.3279C7.1829 31.3944 7.04941 31.429 6.91372 31.4286L6.92074 29.4286ZM6.32191 29.5841C6.13908 29.6868 5.98595 29.835 5.87743 30.0145L7.58881 31.0495C7.51859 31.1656 7.4195 31.2615 7.3012 31.3279L6.32191 29.5841ZM5.87743 30.0145C5.76892 30.1939 5.70872 30.3984 5.7027 30.608L7.70187 30.6654C7.69797 30.8011 7.65902 30.9334 7.58881 31.0495L5.87743 30.0145ZM5.7027 30.608C5.69667 30.8176 5.74504 31.0252 5.84306 31.2105L7.61104 30.2755C7.67447 30.3955 7.70577 30.5298 7.70187 30.6654L5.7027 30.608ZM5.84641 31.2168C6.29862 32.0574 6.96989 32.7599 7.78903 33.2499L8.81573 31.5336C8.30634 31.2289 7.88892 30.792 7.6077 30.2693L5.84641 31.2168ZM7.78903 33.2499C8.60817 33.7399 9.54465 33.9991 10.4992 34L10.501 32C9.90746 31.9994 9.32511 31.8383 8.81573 31.5336L7.78903 33.2499Z" fill="#A180FF" mask="url(#path-1-inside-1_424_13562)"/>
</svg>
