<svg width="21" height="42" viewBox="0 0 21 42" fill="none" xmlns="http://www.w3.org/2000/svg">
<path d="M19.7142 25.5711L19.7146 25.5716C19.7476 25.6114 19.7906 25.6636 19.8348 25.7174C19.8845 25.7778 19.9359 25.8402 19.9766 25.8893C20.1452 26.0931 20.2519 26.341 20.2841 26.6035C20.3162 26.8662 20.2724 27.1326 20.1578 27.3711L20.1574 27.3719C19.9126 27.8838 19.3934 28.2127 18.7769 28.2127H2.2292C1.60751 28.2127 1.08507 27.8821 0.841798 27.3695L0.841108 27.3681C0.726998 27.1296 0.683589 26.8635 0.716017 26.6011C0.748445 26.3388 0.855353 26.0912 1.02409 25.8877L1.02411 25.8877L1.02702 25.8842C1.10339 25.7903 1.17851 25.6997 1.25411 25.6086L1.28609 25.57L1.2862 25.5699L1.30238 25.5503C1.88315 24.8493 2.40413 24.2205 2.7594 23.2405C3.11413 22.262 3.29277 20.9696 3.29277 18.9295C3.29277 17.1627 3.64655 15.7478 4.33007 14.6371C5.01081 13.5309 6.04286 12.6867 7.47132 12.0986L7.49887 12.0873L7.52488 12.0727C7.5898 12.0365 7.6482 11.9896 7.69767 11.9341L7.7716 11.8511L7.80343 11.7446C8.21703 10.361 9.32156 9.5 10.5001 9.5C11.6786 9.5 12.7836 10.361 13.1972 11.7461L13.2276 11.8477L13.2966 11.9283C13.3476 11.9878 13.4087 12.0378 13.4772 12.0759L13.5029 12.0901L13.53 12.1013C14.7565 12.6059 15.6616 13.2771 16.3258 14.1455L16.3261 14.1459C17.2271 15.3218 17.7079 16.9195 17.7079 18.9311C17.7079 20.9705 17.8869 22.2625 18.2417 23.241C18.5966 24.2194 19.1165 24.8482 19.6956 25.5486L19.7142 25.5711ZM12.4415 31.9628C11.8547 32.3137 11.1839 32.4994 10.5001 32.5C9.81649 32.4993 9.14576 32.3136 8.55905 31.9627C8.11544 31.6973 7.73236 31.3449 7.43185 30.9286H13.5689C13.2683 31.345 12.8852 31.6974 12.4415 31.9628ZM14.084 30.9286C14.084 30.9286 14.084 30.9286 14.0839 30.9286H14.084Z" fill="#FC94AF" stroke="#FC94AF"/>
</svg>
