<svg width="25" height="42" viewBox="0 0 25 42" fill="none" xmlns="http://www.w3.org/2000/svg">
<path d="M12.5 18.9375C12.7072 18.9375 12.9059 19.0198 13.0524 19.1663C13.1989 19.3128 13.2812 19.5115 13.2812 19.7188V22.0625H15.625C15.8322 22.0625 16.0309 22.1448 16.1774 22.2913C16.3239 22.4378 16.4062 22.6365 16.4062 22.8438C16.4062 23.051 16.3239 23.2497 16.1774 23.3962C16.0309 23.5427 15.8322 23.625 15.625 23.625H13.2812V25.9688C13.2812 26.176 13.1989 26.3747 13.0524 26.5212C12.9059 26.6677 12.7072 26.75 12.5 26.75C12.2928 26.75 12.0941 26.6677 11.9476 26.5212C11.8011 26.3747 11.7188 26.176 11.7188 25.9688V23.625H9.375C9.1678 23.625 8.96909 23.5427 8.82257 23.3962C8.67606 23.2497 8.59375 23.051 8.59375 22.8438C8.59375 22.6365 8.67606 22.4378 8.82257 22.2913C8.96909 22.1448 9.1678 22.0625 9.375 22.0625H11.7188V19.7188C11.7188 19.5115 11.8011 19.3128 11.9476 19.1663C12.0941 19.0198 12.2928 18.9375 12.5 18.9375Z" fill="#33343C" fill-opacity="0.7"/>
<path d="M5.46875 9C5.67595 9 5.87466 9.08231 6.02118 9.22882C6.16769 9.37534 6.25 9.57405 6.25 9.78125V9.5625H18.75V9.78125C18.75 9.57405 18.8323 9.37534 18.9788 9.22882C19.1253 9.08231 19.324 9 19.5312 9C19.7385 9 19.9372 9.08231 20.0837 9.22882C20.2302 9.37534 20.3125 9.57405 20.3125 9.78125V9.5625H21.875C22.7038 9.5625 23.4987 9.89174 24.0847 10.4778C24.6708 11.0638 25 11.8587 25 12.6875V29.875C25 30.7038 24.6708 31.4987 24.0847 32.0847C23.4987 32.6708 22.7038 33 21.875 33H3.125C2.2962 33 1.50134 32.6708 0.915291 32.0847C0.32924 31.4987 0 30.7038 0 29.875V12.6875C0 11.8587 0.32924 11.0638 0.915291 10.4778C1.50134 9.89174 2.2962 9.5625 3.125 9.5625H4.6875V9.78125C4.6875 9.57405 4.76981 9.37534 4.91632 9.22882C5.06284 9.08231 5.26155 9 5.46875 9ZM1.5625 14.25V29.875C1.5625 30.2894 1.72712 30.6868 2.02015 30.9799C2.31317 31.2729 2.7106 31.4375 3.125 31.4375H21.875C22.2894 31.4375 22.6868 31.2729 22.9799 30.9799C23.2729 30.6868 23.4375 30.2894 23.4375 29.875V14.25H1.5625Z" fill="#33343C" fill-opacity="0.7"/>
</svg>
