<svg width="25" height="42" viewBox="0 0 25 42" fill="none" xmlns="http://www.w3.org/2000/svg">
<path d="M1.63003 19.6731C0.904887 20.9758 0.5541 22.4537 0.616449 23.9433C0.678798 25.433 1.15186 26.8764 1.98333 28.114C2.11104 28.3069 2.18292 28.4562 2.1608 28.5563C2.13869 28.6563 1.50121 31.977 1.50121 31.977C1.48588 32.0547 1.49169 32.1351 1.51805 32.2098C1.54441 32.2845 1.59034 32.3507 1.65104 32.4016C1.73204 32.4661 1.83276 32.5009 1.93633 32.5C1.99167 32.5001 2.04645 32.4888 2.09722 32.4668L5.20498 31.2505C5.41887 31.1661 5.65748 31.1701 5.86844 31.2615C6.91561 31.6696 8.07335 31.925 9.23164 31.925C10.7859 31.9266 12.313 31.5167 13.6575 30.7368M21.7849 24.5716C21.7296 24.3726 21.8512 24.0961 21.9673 23.8971C22.0028 23.8379 22.0416 23.7806 22.0834 23.7257C23.0766 22.25 23.6078 20.512 23.6094 18.7332C23.626 13.6356 19.3245 9.5 14.0058 9.5C9.3671 9.5 5.49691 12.657 4.59018 16.8478C4.45454 17.469 4.38596 18.1029 4.38562 18.7387C4.38562 23.8418 8.52119 28.088 13.8399 28.088C14.6859 28.088 15.8248 27.8336 16.4496 27.6622C17.0743 27.4909 17.6935 27.2642 17.8539 27.2034C18.0182 27.1414 18.1924 27.1095 18.3681 27.1094C18.5597 27.1086 18.7496 27.1462 18.9265 27.2199L22.0613 28.3312C22.13 28.3603 22.2027 28.379 22.277 28.3865C22.3943 28.3865 22.5068 28.3399 22.5897 28.257C22.6727 28.174 22.7193 28.0615 22.7193 27.9442C22.7154 27.8936 22.7061 27.8436 22.6916 27.7949L21.7849 24.5716Z" stroke="#A180FF" stroke-miterlimit="10" stroke-linecap="round"/>
<circle cx="14.1094" cy="19" r="9.5" fill="#A180FF"/>
<path d="M22.6229 28.51L17.9099 26.8589L20.9718 23.797L22.6229 28.51Z" fill="#A180FF"/>
</svg>
