<svg width="25" height="42" viewBox="0 0 25 42" fill="none" xmlns="http://www.w3.org/2000/svg">
<path d="M22.1755 24.5716L21.6937 24.7054L21.6942 24.707L22.1755 24.5716ZM22.358 23.8971L21.929 23.6401L21.9261 23.6452L22.358 23.8971ZM22.4741 23.7257L22.8718 24.0287L22.8807 24.017L22.8889 24.0049L22.4741 23.7257ZM24 18.7332L23.5 18.7315L23.5 18.7327L24 18.7332ZM4.98081 16.8478L5.4693 16.9545L5.4695 16.9536L4.98081 16.8478ZM4.77624 18.7387L4.27624 18.7384V18.7387H4.77624ZM18.2445 27.2034L18.0681 26.7355L18.0672 26.7359L18.2445 27.2034ZM18.7587 27.1094L18.7592 27.6094L18.7606 27.6094L18.7587 27.1094ZM19.3171 27.2199L19.1248 27.6815L19.1373 27.6867L19.15 27.6912L19.3171 27.2199ZM22.452 28.3312L22.6469 27.8708L22.6331 27.865L22.619 27.86L22.452 28.3312ZM22.6676 28.3865L22.6169 28.884L22.6422 28.8865H22.6676V28.3865ZM23.1099 27.9442H23.6099V27.9252L23.6084 27.9062L23.1099 27.9442ZM23.0822 27.7949L22.6009 27.9304L22.6031 27.938L23.0822 27.7949ZM2.45754 19.9163C2.59184 19.675 2.50512 19.3705 2.26384 19.2362C2.02256 19.1019 1.71809 19.1886 1.58378 19.4299L2.45754 19.9163ZM2.37395 28.114L2.7909 27.838L2.78898 27.8351L2.37395 28.114ZM1.89184 31.977L2.38238 32.0737L2.38287 32.0712L1.89184 31.977ZM2.04167 32.4016L1.7204 32.7849L1.73009 32.7926L2.04167 32.4016ZM2.32696 32.5L2.32833 32L2.32275 32L2.32696 32.5ZM2.48785 32.4668L2.30561 32.0012L2.29715 32.0045L2.28881 32.0081L2.48785 32.4668ZM5.59561 31.2505L5.77784 31.7161L5.77899 31.7156L5.59561 31.2505ZM6.25907 31.2615L6.06029 31.7203L6.06885 31.724L6.07754 31.7274L6.25907 31.2615ZM9.62226 31.925L9.62279 31.425H9.62226V31.925ZM14.299 31.1693C14.5378 31.0308 14.6192 30.7248 14.4806 30.486C14.3421 30.2471 14.0361 30.1658 13.7972 30.3043L14.299 31.1693ZM22.6573 24.4378C22.6638 24.4614 22.6609 24.4708 22.6621 24.4578C22.6633 24.4451 22.6675 24.4216 22.6787 24.3867C22.7016 24.3149 22.7422 24.2308 22.7899 24.149L21.9261 23.6452C21.8577 23.7625 21.7793 23.9161 21.7262 24.0821C21.6766 24.2371 21.6277 24.4677 21.6938 24.7054L22.6573 24.4378ZM22.7869 24.1541C22.8128 24.1107 22.8412 24.0689 22.8718 24.0287L22.0763 23.4227C22.0232 23.4924 21.9741 23.565 21.9291 23.6401L22.7869 24.1541ZM22.8889 24.0049C23.9374 22.4468 24.4983 20.6117 24.5 18.7336L23.5 18.7327C23.4985 20.4122 22.9969 22.0532 22.0593 23.4466L22.8889 24.0049ZM24.5 18.7348C24.5176 13.3405 19.9716 9 14.3964 9V10C19.4587 10 23.5157 13.9306 23.5 18.7315L24.5 18.7348ZM14.3964 9C9.5308 9 5.4504 12.313 4.49212 16.7421L5.4695 16.9536C6.32468 13.001 9.98466 10 14.3964 10V9ZM4.49232 16.7412C4.34904 17.3973 4.2766 18.0669 4.27624 18.7384L5.27624 18.739C5.27656 18.139 5.34128 17.5407 5.4693 16.9545L4.49232 16.7412ZM4.27624 18.7387C4.27624 24.1178 8.63548 28.588 14.2306 28.588V27.588C9.18815 27.588 5.27624 23.5659 5.27624 18.7387H4.27624ZM14.2306 28.588C15.1466 28.588 16.3392 28.3182 16.9725 28.1444L16.7079 27.1801C16.0917 27.3491 15.0063 27.588 14.2306 27.588V28.588ZM16.9725 28.1444C17.619 27.9671 18.2548 27.7342 18.4218 27.6709L18.0672 26.7359C17.9136 26.7941 17.3109 27.0146 16.7079 27.1801L16.9725 28.1444ZM18.4209 27.6712C18.529 27.6304 18.6436 27.6095 18.7592 27.6094L18.7582 26.6094C18.5224 26.6096 18.2887 26.6523 18.0681 26.7355L18.4209 27.6712ZM18.7606 27.6094C18.8856 27.6089 19.0094 27.6334 19.1248 27.6815L19.5094 26.7584C19.271 26.6591 19.0151 26.6084 18.7568 26.6094L18.7606 27.6094ZM19.15 27.6912L22.2849 28.8025L22.619 27.86L19.4842 26.7487L19.15 27.6912ZM22.257 28.7917C22.3717 28.8402 22.493 28.8713 22.6169 28.884L22.7183 27.8891C22.6937 27.8866 22.6696 27.8804 22.6469 27.8708L22.257 28.7917ZM22.6676 28.8865C22.9175 28.8865 23.1572 28.7872 23.3339 28.6105L22.6268 27.9034C22.6376 27.8926 22.6523 27.8865 22.6676 27.8865V28.8865ZM23.3339 28.6105C23.5106 28.4338 23.6099 28.1941 23.6099 27.9442H22.6099C22.6099 27.9289 22.616 27.9142 22.6268 27.9034L23.3339 28.6105ZM23.6084 27.9062C23.6019 27.82 23.5861 27.7347 23.5613 27.6519L22.6031 27.938C22.6074 27.9524 22.6102 27.9672 22.6113 27.9822L23.6084 27.9062ZM23.5636 27.6595L22.6568 24.4362L21.6942 24.707L22.6009 27.9303L23.5636 27.6595ZM1.58378 19.4299C0.813788 20.8132 0.441306 22.3825 0.507511 23.9642L1.50664 23.9224C1.44814 22.5249 1.77724 21.1384 2.45754 19.9163L1.58378 19.4299ZM0.507511 23.9642C0.573716 25.546 1.07603 27.0787 1.95892 28.3928L2.78898 27.8351C2.00893 26.6741 1.56513 25.3199 1.50664 23.9224L0.507511 23.9642ZM1.95701 28.3899C1.98475 28.4318 2.00697 28.4676 2.02436 28.4981C2.04198 28.529 2.0524 28.5505 2.05813 28.5641C2.06422 28.5786 2.06175 28.5764 2.05897 28.5611C2.05618 28.5456 2.05083 28.5044 2.06321 28.4484L3.03965 28.6642C3.08452 28.4611 3.02372 28.2804 2.97962 28.1757C2.93049 28.0592 2.86063 27.9433 2.79089 27.838L1.95701 28.3899ZM2.06321 28.4484C2.05018 28.5073 1.88295 29.375 1.72234 30.2097C1.64127 30.6311 1.56088 31.0493 1.50077 31.3622C1.47071 31.5187 1.44572 31.6488 1.42824 31.7398C1.4195 31.7853 1.41264 31.821 1.40797 31.8454C1.40563 31.8575 1.40384 31.8669 1.40263 31.8732C1.40203 31.8763 1.40157 31.8787 1.40126 31.8803C1.40111 31.8811 1.401 31.8817 1.40092 31.8821C1.40088 31.8823 1.40085 31.8824 1.40083 31.8825C1.40082 31.8826 1.40081 31.8826 1.40081 31.8827C1.4008 31.8827 1.4008 31.8827 1.89184 31.977C2.38287 32.0712 2.38287 32.0712 2.38288 32.0712C2.38288 32.0712 2.38289 32.0711 2.3829 32.0711C2.38292 32.071 2.38295 32.0708 2.38299 32.0706C2.38306 32.0702 2.38318 32.0696 2.38333 32.0688C2.38364 32.0672 2.38409 32.0648 2.3847 32.0617C2.3859 32.0554 2.38769 32.0461 2.39003 32.0339C2.3947 32.0096 2.40156 31.9739 2.4103 31.9284C2.42777 31.8374 2.45276 31.7073 2.48281 31.5509C2.54291 31.238 2.62328 30.8199 2.70433 30.3986C2.78539 29.9773 2.86712 29.553 2.92995 29.2278C2.96138 29.0652 2.98804 28.9276 3.00752 28.8276C3.01726 28.7775 3.02515 28.7372 3.03092 28.708C3.03738 28.6752 3.03981 28.6634 3.03965 28.6642L2.06321 28.4484ZM1.40129 31.8802C1.36863 32.0457 1.38102 32.217 1.43717 32.3761L2.38018 32.0434C2.38362 32.0531 2.38438 32.0636 2.38238 32.0737L1.40129 31.8802ZM1.43717 32.3761C1.49332 32.5353 1.59117 32.6764 1.7205 32.7848L2.36283 32.0184C2.37075 32.025 2.37674 32.0336 2.38018 32.0434L1.43717 32.3761ZM1.73009 32.7926C1.90075 32.9286 2.11296 33.0018 2.33117 33L2.32275 32C2.33382 31.9999 2.34459 32.0036 2.35325 32.0105L1.73009 32.7926ZM2.32558 33C2.44987 33.0003 2.57288 32.975 2.68688 32.9255L2.28881 32.0081C2.30128 32.0027 2.31473 31.9999 2.32833 32L2.32558 33ZM2.67008 32.9324L5.77784 31.7161L5.41337 30.7849L2.30561 32.0012L2.67008 32.9324ZM5.77899 31.7156C5.86968 31.6799 5.97084 31.6816 6.06029 31.7203L6.45785 30.8027C6.12537 30.6587 5.74932 30.6524 5.41222 30.7853L5.77899 31.7156ZM6.07754 31.7274C7.17288 32.1542 8.39226 32.425 9.62226 32.425V31.425C8.53568 31.425 7.43958 31.1849 6.4406 30.7956L6.07754 31.7274ZM9.62173 32.425C11.2643 32.4267 12.8781 31.9935 14.299 31.1693L13.7972 30.3043C12.5291 31.0399 11.0888 31.4265 9.62279 31.425L9.62173 32.425Z" fill="#33343C" fill-opacity="0.7"/>
</svg>
