<svg width="30" height="30" viewBox="0 0 30 30" fill="none" xmlns="http://www.w3.org/2000/svg">
<mask id="path-1-inside-1_289_10583" fill="white">
<path d="M30 15C30 23.2843 23.2843 30 15 30C6.71573 30 0 23.2843 0 15C0 6.71573 6.71573 0 15 0C23.2843 0 30 6.71573 30 15Z"/>
</mask>
<path d="M14 21L13.4471 21.5068L14.0578 22.173L14.6 21.45L14 21ZM14.5529 20.4932L9.05287 14.4932L7.94713 15.5068L13.4471 21.5068L14.5529 20.4932ZM20.9 10.55L17.9 14.55L19.1 15.45L22.1 11.45L20.9 10.55ZM17.9 14.55L13.4 20.55L14.6 21.45L19.1 15.45L17.9 14.55ZM28.5 15C28.5 22.4558 22.4558 28.5 15 28.5V31.5C24.1127 31.5 31.5 24.1127 31.5 15H28.5ZM15 28.5C7.54416 28.5 1.5 22.4558 1.5 15H-1.5C-1.5 24.1127 5.8873 31.5 15 31.5V28.5ZM1.5 15C1.5 7.54416 7.54416 1.5 15 1.5V-1.5C5.8873 -1.5 -1.5 5.8873 -1.5 15H1.5ZM15 1.5C22.4558 1.5 28.5 7.54416 28.5 15H31.5C31.5 5.8873 24.1127 -1.5 15 -1.5V1.5Z" fill="#6A92FF" mask="url(#path-1-inside-1_289_10583)"/>
</svg>
