<svg width="21" height="42" viewBox="0 0 21 42" fill="none" xmlns="http://www.w3.org/2000/svg">
<path d="M10.5001 33C4.21382 27.2863 1.07153 22.428 1.07153 18.4286C1.07153 15.928 2.0649 13.5298 3.8331 11.7616C5.6013 9.99336 7.99949 9 10.5001 9C13.0007 9 15.3989 9.99336 17.1671 11.7616C18.9353 13.5298 19.9287 15.928 19.9287 18.4286C19.9287 22.428 16.7864 27.2863 10.5001 33Z" fill="#A180FF" stroke="#A180FF"/>
<path d="M13.9807 20.58C13.9807 21.236 13.8127 21.844 13.4767 22.404C13.1487 22.956 12.7087 23.396 12.1567 23.724C11.6047 24.052 11.0207 24.216 10.4047 24.216C9.75667 24.216 9.15667 24.056 8.60467 23.736C8.05267 23.408 7.61667 22.968 7.29667 22.416C6.97667 21.856 6.81667 21.244 6.81667 20.58V15.204H8.26867V20.544C8.26867 20.96 8.36067 21.336 8.54467 21.672C8.73667 22.008 8.99667 22.272 9.32467 22.464C9.65267 22.656 10.0127 22.752 10.4047 22.752C10.7807 22.752 11.1287 22.656 11.4487 22.464C11.7767 22.272 12.0367 22.008 12.2287 21.672C12.4287 21.328 12.5287 20.952 12.5287 20.544V15.204H13.9807V20.58Z" fill="white"/>
</svg>
