<svg width="24" height="24" viewBox="0 0 24 24" fill="none" xmlns="http://www.w3.org/2000/svg">
<mask id="path-1-inside-1_664_29186" fill="white">
<path d="M20 9.87092C20 14.189 16.5713 18.1543 14.2032 20.3781C12.9469 21.5578 11.0531 21.5578 9.79683 20.3781C7.42873 18.1543 4 14.189 4 9.87092C4 5.52393 7.58172 2 12 2C16.4183 2 20 5.52393 20 9.87092Z"/>
</mask>
<path d="M14.2032 20.3781L13.5186 19.6491L14.2032 20.3781ZM19 9.87092C19 11.7691 18.2431 13.6519 17.1464 15.3723C16.0536 17.0866 14.6678 18.57 13.5186 19.6491L14.8877 21.107C16.1066 19.9624 17.6192 18.3512 18.8329 16.4474C20.0425 14.5498 21 12.2908 21 9.87092H19ZM10.4814 19.6491C9.33218 18.57 7.94639 17.0866 6.85362 15.3723C5.75689 13.6519 5 11.7691 5 9.87092H3C3 12.2908 3.95747 14.5498 5.16713 16.4474C6.38075 18.3512 7.89337 19.9624 9.11228 21.107L10.4814 19.6491ZM5 9.87092C5 6.09149 8.11861 3 12 3V1C7.04483 1 3 4.95637 3 9.87092H5ZM12 3C15.8814 3 19 6.09149 19 9.87092H21C21 4.95637 16.9552 1 12 1V3ZM13.5186 19.6491C12.6472 20.4674 11.3528 20.4674 10.4814 19.6491L9.11228 21.107C10.7534 22.6481 13.2466 22.6481 14.8877 21.107L13.5186 19.6491Z" fill="#33343C" mask="url(#path-1-inside-1_664_29186)"/>
<path d="M15 11.45C15 11.99 14.8591 12.49 14.5773 12.95C14.3024 13.4033 13.9313 13.7633 13.4639 14.03C13.0034 14.2967 12.5155 14.43 12 14.43C11.4502 14.43 10.945 14.2967 10.4845 14.03C10.0241 13.7633 9.65979 13.4033 9.39175 12.95C9.13058 12.4967 9 11.9967 9 11.45V7H10.0825V11.43C10.0825 11.7967 10.1649 12.13 10.3299 12.43C10.5017 12.7233 10.732 12.9567 11.0206 13.13C11.3162 13.2967 11.6426 13.38 12 13.38C12.3368 13.38 12.6529 13.2967 12.9485 13.13C13.244 12.9567 13.4811 12.72 13.6598 12.42C13.8385 12.12 13.9278 11.79 13.9278 11.43V7H15V11.45Z" fill="#33343C"/>
</svg>
