<svg width="21" height="42" viewBox="0 0 21 42" fill="none" xmlns="http://www.w3.org/2000/svg">
<path d="M10.4999 33C4.21357 27.2863 1.07129 22.428 1.07129 18.4286C1.07129 15.928 2.06465 13.5298 3.83285 11.7616C5.60105 9.99336 7.99925 9 10.4999 9C13.0005 9 15.3987 9.99336 17.1669 11.7616C18.9351 13.5298 19.9284 15.928 19.9284 18.4286C19.9284 22.428 16.7861 27.2863 10.4999 33Z" fill="#FC94AF" stroke="#FC94AF"/>
<path d="M13.9804 20.58C13.9804 21.236 13.8124 21.844 13.4764 22.404C13.1484 22.956 12.7084 23.396 12.1564 23.724C11.6044 24.052 11.0204 24.216 10.4044 24.216C9.75643 24.216 9.15643 24.056 8.60443 23.736C8.05243 23.408 7.61643 22.968 7.29643 22.416C6.97643 21.856 6.81643 21.244 6.81643 20.58V15.204H8.26843V20.544C8.26843 20.96 8.36043 21.336 8.54443 21.672C8.73643 22.008 8.99643 22.272 9.32443 22.464C9.65243 22.656 10.0124 22.752 10.4044 22.752C10.7804 22.752 11.1284 22.656 11.4484 22.464C11.7764 22.272 12.0364 22.008 12.2284 21.672C12.4284 21.328 12.5284 20.952 12.5284 20.544V15.204H13.9804V20.58Z" fill="white"/>
</svg>
