<svg width="21" height="42" viewBox="0 0 21 42" fill="none" xmlns="http://www.w3.org/2000/svg">
<path d="M10.4989 33C4.2126 27.2863 1.07031 22.428 1.07031 18.4286C1.07031 15.928 2.06368 13.5298 3.83188 11.7616C5.60008 9.99336 7.99827 9 10.4989 9C12.9995 9 15.3977 9.99336 17.1659 11.7616C18.9341 13.5298 19.9275 15.928 19.9275 18.4286C19.9275 22.428 16.7852 27.2863 10.4989 33Z" stroke="#33343C" stroke-opacity="0.7"/>
<path d="M13.7146 20.628C13.7146 21.26 13.5546 21.84 13.2346 22.368C12.9226 22.896 12.5106 23.316 11.9986 23.628C11.4946 23.932 10.9626 24.084 10.4026 24.084C9.77059 24.084 9.20259 23.932 8.69859 23.628C8.19459 23.324 7.79859 22.912 7.51059 22.392C7.22259 21.864 7.07859 21.276 7.07859 20.628V15.336H7.95459V20.64C7.95459 21.136 8.05859 21.58 8.26659 21.972C8.48259 22.356 8.77459 22.66 9.14259 22.884C9.51859 23.1 9.93859 23.208 10.4026 23.208C10.8266 23.208 11.2266 23.1 11.6026 22.884C11.9786 22.66 12.2786 22.352 12.5026 21.96C12.7346 21.568 12.8506 21.128 12.8506 20.64V15.336H13.7146V20.628Z" fill="#33343C" fill-opacity="0.7"/>
</svg>
