<svg width="24" height="24" viewBox="0 0 24 24" fill="none" xmlns="http://www.w3.org/2000/svg">
<path d="M20 9.87092C20 14.189 16.5713 18.1543 14.2032 20.3781C12.9469 21.5578 11.0531 21.5578 9.79682 20.3781C7.42873 18.1543 4 14.189 4 9.87092C4 5.52393 7.58172 2 12 2C16.4183 2 20 5.52393 20 9.87092Z" fill="#33343C"/>
<path d="M15 11.45C15 11.99 14.8591 12.49 14.5773 12.95C14.3024 13.4033 13.9313 13.7633 13.4639 14.03C13.0034 14.2967 12.5155 14.43 12 14.43C11.4502 14.43 10.945 14.2967 10.4845 14.03C10.0241 13.7633 9.65979 13.4033 9.39175 12.95C9.13058 12.4967 9 11.9967 9 11.45V7H10.0825V11.43C10.0825 11.7967 10.1649 12.13 10.3299 12.43C10.5017 12.7233 10.732 12.9567 11.0206 13.13C11.3162 13.2967 11.6426 13.38 12 13.38C12.3368 13.38 12.6529 13.2967 12.9485 13.13C13.244 12.9567 13.4811 12.72 13.6598 12.42C13.8385 12.12 13.9278 11.79 13.9278 11.43V7H15V11.45Z" fill="white"/>
</svg>
