<svg width="89" height="69" viewBox="0 0 89 69" fill="none" xmlns="http://www.w3.org/2000/svg">
<path d="M36.1667 21H52.8333M44.5 29.3333V12.6667M64.5 21C64.5 32.0457 55.5457 41 44.5 41C33.4543 41 24.5 32.0457 24.5 21C24.5 9.95431 33.4543 1 44.5 1C55.5457 1 64.5 9.95431 64.5 21Z" stroke="#FC94AF" stroke-width="2"/>
<path d="M13.1353 55.288V57.72C13.1353 58.552 13.2846 59.3733 13.5833 60.184C13.882 60.984 14.2926 61.704 14.8153 62.344C15.3486 62.984 15.9513 63.4747 16.6233 63.816L15.7433 64.984C14.9966 64.5893 14.3353 64.0187 13.7593 63.272C13.1833 62.5253 12.7353 61.672 12.4153 60.712C12.0953 61.736 11.6313 62.648 11.0233 63.448C10.426 64.2373 9.73798 64.84 8.95931 65.256L8.06331 64.056C8.76731 63.7147 9.39131 63.2133 9.93531 62.552C10.49 61.88 10.9166 61.1227 11.2153 60.28C11.5246 59.4373 11.6793 58.584 11.6793 57.72V55.288H13.1353ZM17.7113 54.12H19.1833V59.752H21.4233V61H19.1833V68.248H17.7113V54.12ZM30.5437 55.256V56.44H27.4557V57.064C27.4557 57.992 27.7757 58.8453 28.4157 59.624C29.0557 60.4027 29.9037 60.968 30.9597 61.32L30.2237 62.472C29.4237 62.2053 28.7197 61.8053 28.1117 61.272C27.5144 60.728 27.0557 60.0987 26.7357 59.384C26.4264 60.1627 25.9677 60.8453 25.3597 61.432C24.7517 62.0187 24.0317 62.456 23.1997 62.744L22.4477 61.576C23.525 61.2027 24.3784 60.6053 25.0077 59.784C25.6477 58.952 25.9677 58.0453 25.9677 57.064V56.44H22.8317V55.256H30.5437ZM24.7517 63.464H26.2077V66.728H34.3037V67.944H24.7517V63.464ZM32.3997 54.12H33.8717V64.424H32.3997V54.12ZM43.8316 54.76C44.7702 54.76 45.5649 55.0053 46.2156 55.496C46.8769 55.9867 47.2822 56.632 47.4316 57.432H50.1516V54.12H51.6236V61.688H50.1516V58.616H47.4316C47.2929 59.4267 46.8929 60.0827 46.2316 60.584C45.5809 61.0853 44.7809 61.336 43.8316 61.336C43.1276 61.336 42.4982 61.1973 41.9436 60.92C41.3889 60.6427 40.9516 60.2533 40.6316 59.752C40.3222 59.2507 40.1676 58.68 40.1676 58.04C40.1676 57.4107 40.3222 56.8453 40.6316 56.344C40.9516 55.8427 41.3889 55.4533 41.9436 55.176C42.4982 54.8987 43.1276 54.76 43.8316 54.76ZM41.5756 58.04C41.5756 58.6587 41.7836 59.16 42.1996 59.544C42.6262 59.9173 43.1702 60.104 43.8316 60.104C44.4822 60.104 45.0156 59.912 45.4316 59.528C45.8476 59.144 46.0556 58.648 46.0556 58.04C46.0556 57.4213 45.8476 56.9253 45.4316 56.552C45.0156 56.168 44.4822 55.976 43.8316 55.976C43.1596 55.976 42.6156 56.168 42.1996 56.552C41.7836 56.9253 41.5756 57.4213 41.5756 58.04ZM42.5036 62.376H43.9596V64.056H50.1676V62.376H51.6236V68.04H42.5036V62.376ZM50.1676 66.872V65.192H43.9596V66.872H50.1676ZM59.5599 65.336V62.824H55.4959V58.344H63.7199V56.312H55.4639V55.112H65.1759V59.512H56.9519V61.624H65.5119V62.824H61.0159V65.336H66.7119V66.536H53.9279V65.336H59.5599ZM79.1123 55.384V56.584H70.9523V60.824H79.2563V62.024H69.4963V55.384H79.1123ZM67.9123 65.16H80.6963V66.36H67.9123V65.16Z" fill="#FC94AF"/>
</svg>
