<svg width="16" height="16" viewBox="0 0 16 16" fill="none" xmlns="http://www.w3.org/2000/svg">
<path d="M2 6.56936C2 5.8867 2.55341 5.33329 3.23607 5.33329V5.33329C3.70426 5.33329 4.13226 5.06877 4.34164 4.65001L4.88889 3.55551C5.16127 3.01075 5.71807 2.66663 6.32714 2.66663H9.67286C10.2819 2.66663 10.8387 3.01074 11.1111 3.55551L11.6584 4.65001C11.8677 5.06877 12.2957 5.33329 12.7639 5.33329V5.33329C13.4466 5.33329 14 5.8867 14 6.56936V9.90472C14 10.3028 14 10.5018 13.9811 10.6692C13.8244 12.06 12.7268 13.1577 11.3359 13.3144C11.1685 13.3333 10.9695 13.3333 10.5714 13.3333H5.42857C5.03054 13.3333 4.83152 13.3333 4.66411 13.3144C3.27325 13.1577 2.17558 12.06 2.01886 10.6692C2 10.5018 2 10.3028 2 9.90472V6.56936Z" stroke="#33343C" stroke-width="1.2"/>
<path d="M10.0667 8.66667C10.0667 9.80805 9.14139 10.7333 8 10.7333C6.85861 10.7333 5.93333 9.80805 5.93333 8.66667C5.93333 7.52528 6.85861 6.6 8 6.6C9.14139 6.6 10.0667 7.52528 10.0667 8.66667Z" stroke="#33343C" stroke-width="1.2"/>
</svg>
