<svg width="24" height="42" viewBox="0 0 24 42" fill="none" xmlns="http://www.w3.org/2000/svg">
<path d="M20.2454 29.2126V17.7151C20.2454 16.4073 19.8363 15.1531 19.1082 14.2283C18.3802 13.3036 17.3927 12.7841 16.363 12.7841H16.3565L4.71592 12.8104M22.8335 25.9253V16.0747C22.8335 14.331 22.2881 12.6587 21.3173 11.4257C20.3466 10.1927 19.0299 9.5 17.657 9.5H17.648L7.30406 9.52137M17.6571 29.2126V19.3506C17.6571 18.4787 17.3844 17.6425 16.899 17.026C16.4136 16.4096 15.7553 16.0632 15.0688 16.0632H3.42174C2.73529 16.0632 2.07696 16.4096 1.59157 17.026C1.10618 17.6425 0.833496 18.4787 0.833496 19.3506V29.2126C0.833496 30.0845 1.10618 30.9207 1.59157 31.5372C2.07696 32.1537 2.73529 32.5 3.42174 32.5H15.0688C15.7553 32.5 16.4136 32.1537 16.899 31.5372C17.3844 30.9207 17.6571 30.0845 17.6571 29.2126Z" stroke="#FC94AF" stroke-linecap="round" stroke-linejoin="round"/>
<rect x="0.833496" y="16.5" width="17.2222" height="15.5" rx="3" fill="#FC94AF"/>
</svg>
