<svg width="23" height="42" viewBox="0 0 23 42" fill="none" xmlns="http://www.w3.org/2000/svg">
<path d="M19.9119 29.2126V17.7151C19.9119 16.4073 19.5028 15.1531 18.7747 14.2283C18.0467 13.3036 17.0592 12.7841 16.0295 12.7841H16.023L4.38242 12.8104M22.5 25.9253V16.0747C22.5 14.331 21.9546 12.6587 20.9838 11.4257C20.0131 10.1927 18.6964 9.5 17.3235 9.5H17.3145L6.97056 9.52137M17.3236 29.2126V19.3506C17.3236 18.4787 17.0509 17.6425 16.5655 17.026C16.0801 16.4096 15.4218 16.0632 14.7353 16.0632H3.08824C2.4018 16.0632 1.74347 16.4096 1.25808 17.026C0.772689 17.6425 0.5 18.4787 0.5 19.3506V29.2126C0.5 30.0845 0.772689 30.9207 1.25808 31.5372C1.74347 32.1537 2.4018 32.5 3.08824 32.5H14.7353C15.4218 32.5 16.0801 32.1537 16.5655 31.5372C17.0509 30.9207 17.3236 30.0845 17.3236 29.2126Z" stroke="#5A86FF" stroke-linecap="round" stroke-linejoin="round"/>
<rect x="0.5" y="16.5" width="17.2222" height="15.5" rx="3" fill="#5A86FF"/>
</svg>
