<svg width="23" height="42" viewBox="0 0 23 42" fill="none" xmlns="http://www.w3.org/2000/svg">
<path d="M0.5 19.3506H0H0.5ZM0.5 29.2126H0H0.5ZM19.4119 29.2126C19.4119 29.4888 19.6357 29.7126 19.9119 29.7126C20.188 29.7126 20.4119 29.4888 20.4119 29.2126H19.4119ZM19.9119 17.7151H20.4119H19.9119ZM16.023 12.7841L16.023 12.2841L16.0219 12.2841L16.023 12.7841ZM4.38129 12.3104C4.10515 12.311 3.8818 12.5353 3.88242 12.8115C3.88305 13.0876 4.10741 13.311 4.38355 13.3104L4.38129 12.3104ZM22 25.9253C22 26.2014 22.2239 26.4253 22.5 26.4253C22.7761 26.4253 23 26.2014 23 25.9253H22ZM17.3235 9.5V9V9.5ZM17.3145 9.5L17.3145 9L17.3134 9L17.3145 9.5ZM6.96953 9.02137C6.69338 9.02194 6.46999 9.24626 6.47056 9.5224C6.47113 9.79854 6.69545 10.0219 6.97159 10.0214L6.96953 9.02137ZM17.8236 29.2126V19.3506H16.8236V29.2126H17.8236ZM17.8236 19.3506C17.8236 18.3797 17.5209 17.4312 16.9583 16.7167L16.1726 17.3354C16.5809 17.8539 16.8236 18.5777 16.8236 19.3506H17.8236ZM16.9583 16.7167C16.3935 15.9993 15.5982 15.5632 14.7353 15.5632V16.5632C15.2453 16.5632 15.7667 16.8198 16.1726 17.3354L16.9583 16.7167ZM14.7353 15.5632H3.08824V16.5632H14.7353V15.5632ZM3.08824 15.5632C2.22534 15.5632 1.43008 15.9993 0.865227 16.7167L1.65093 17.3354C2.05686 16.8198 2.57825 16.5632 3.08824 16.5632V15.5632ZM0.865227 16.7167C0.302679 17.4312 0 18.3797 0 19.3506H1C1 18.5777 1.2427 17.8539 1.65093 17.3354L0.865227 16.7167ZM0 19.3506V29.2126H1V19.3506H0ZM0 29.2126C0 30.1835 0.302679 31.132 0.865227 31.8465L1.65093 31.2279C1.2427 30.7094 1 29.9855 1 29.2126H0ZM0.865227 31.8465C1.43008 32.5639 2.22534 33 3.08824 33V32C2.57825 32 2.05686 31.7434 1.65093 31.2279L0.865227 31.8465ZM3.08824 33H14.7353V32H3.08824V33ZM14.7353 33C15.5982 33 16.3935 32.5639 16.9583 31.8465L16.1726 31.2279C15.7667 31.7434 15.2453 32 14.7353 32V33ZM16.9583 31.8465C17.5209 31.132 17.8236 30.1835 17.8236 29.2126H16.8236C16.8236 29.9855 16.5809 30.7094 16.1726 31.2279L16.9583 31.8465ZM20.4119 29.2126V17.7151H19.4119V29.2126H20.4119ZM20.4119 17.7151C20.4119 16.3083 19.9728 14.9418 19.1676 13.919L18.3819 14.5376C19.0328 15.3644 19.4119 16.5063 19.4119 17.7151H20.4119ZM19.1676 13.919C18.3601 12.8934 17.2356 12.2841 16.0295 12.2841V13.2841C16.8827 13.2841 17.7333 13.7138 18.3819 14.5376L19.1676 13.919ZM16.0295 12.2841H16.023V13.2841H16.0295V12.2841ZM16.0219 12.2841L4.38129 12.3104L4.38355 13.3104L16.0242 13.2841L16.0219 12.2841ZM23 25.9253V16.0747H22V25.9253H23ZM23 16.0747C23 14.232 22.4246 12.4474 21.3767 11.1164L20.591 11.735C21.4846 12.87 22 14.43 22 16.0747H23ZM21.3767 11.1164C20.3265 9.78246 18.8729 9 17.3235 9V10C18.52 10 19.6997 10.6029 20.591 11.735L21.3767 11.1164ZM17.3235 9H17.3145V10H17.3235V9ZM17.3134 9L6.96953 9.02137L6.97159 10.0214L17.3155 10L17.3134 9Z" fill="#33343C" fill-opacity="0.7"/>
</svg>
