<svg width="25" height="42" viewBox="0 0 25 42" fill="none" xmlns="http://www.w3.org/2000/svg">
<path fill-rule="evenodd" clip-rule="evenodd" d="M23.8239 26.5172V11.9195C23.8239 11.1452 23.5163 10.4026 22.9687 9.85511C22.4212 9.30759 21.6786 9 20.9043 9H9.22618C8.45187 9 7.70927 9.30759 7.16175 9.85511C6.61423 10.4026 6.30664 11.1452 6.30664 11.9195V26.5172C6.30664 27.2915 6.61423 28.0341 7.16175 28.5816C7.70927 29.1292 8.45187 29.4368 9.22618 29.4368H20.9043C21.6786 29.4368 22.4212 29.1292 22.9687 28.5816C23.5163 28.0341 23.8239 27.2915 23.8239 26.5172Z" fill="#FC94AF" stroke="#FC94AF" stroke-linecap="round" stroke-linejoin="round"/>
<path d="M6.022 12.5547L3.09662 13.6203C2.36925 13.8853 1.77687 14.4282 1.44975 15.1298C1.12263 15.8314 1.08754 16.6342 1.3522 17.3617L6.34461 31.0791C6.47578 31.4395 6.67666 31.7704 6.93576 32.0531C7.19486 32.3358 7.50711 32.5647 7.85468 32.7267C8.20225 32.8887 8.57832 32.9806 8.96143 32.9972C9.34453 33.0138 9.72716 32.9548 10.0875 32.8236L18.2154 29.615" stroke="#FC94AF" stroke-linecap="round" stroke-linejoin="round"/>
<path d="M10.7764 16.3008H18.0752M10.7764 19.2203H19.535M10.7764 22.1399H15.1557" stroke="white" stroke-linecap="round" stroke-linejoin="round"/>
</svg>
