<svg width="24" height="42" viewBox="0 0 24 42" fill="none" xmlns="http://www.w3.org/2000/svg">
<path d="M0.833008 19.3506H0.333008H0.833008ZM0.833008 29.2126H0.333008H0.833008ZM19.7449 29.2126C19.7449 29.4888 19.9687 29.7126 20.2449 29.7126C20.521 29.7126 20.7449 29.4888 20.7449 29.2126H19.7449ZM20.2449 17.7151H20.7449H20.2449ZM16.356 12.7841V12.2841L16.3549 12.2841L16.356 12.7841ZM4.7143 12.3104C4.43816 12.311 4.21481 12.5353 4.21543 12.8115C4.21605 13.0876 4.44042 13.311 4.71656 13.3104L4.7143 12.3104ZM22.333 25.9253C22.333 26.2014 22.5569 26.4253 22.833 26.4253C23.1091 26.4253 23.333 26.2014 23.333 25.9253H22.333ZM17.6565 9.5V9V9.5ZM17.6475 9.5V9L17.6464 9L17.6475 9.5ZM7.30253 9.02137C7.02639 9.02194 6.803 9.24626 6.80357 9.5224C6.80414 9.79854 7.02846 10.0219 7.3046 10.0214L7.30253 9.02137ZM18.1566 29.2126V19.3506H17.1566V29.2126H18.1566ZM18.1566 19.3506C18.1566 18.3797 17.8539 17.4312 17.2913 16.7167L16.5056 17.3354C16.9139 17.8539 17.1566 18.5777 17.1566 19.3506H18.1566ZM17.2913 16.7167C16.7265 15.9993 15.9312 15.5632 15.0683 15.5632V16.5632C15.5783 16.5632 16.0997 16.8198 16.5056 17.3354L17.2913 16.7167ZM15.0683 15.5632H3.42125V16.5632H15.0683V15.5632ZM3.42125 15.5632C2.55835 15.5632 1.76309 15.9993 1.19824 16.7167L1.98394 17.3354C2.38986 16.8198 2.91126 16.5632 3.42125 16.5632V15.5632ZM1.19824 16.7167C0.635687 17.4312 0.333008 18.3797 0.333008 19.3506H1.33301C1.33301 18.5777 1.57571 17.8539 1.98394 17.3354L1.19824 16.7167ZM0.333008 19.3506V29.2126H1.33301V19.3506H0.333008ZM0.333008 29.2126C0.333008 30.1835 0.635687 31.132 1.19824 31.8465L1.98394 31.2279C1.57571 30.7094 1.33301 29.9855 1.33301 29.2126H0.333008ZM1.19824 31.8465C1.76309 32.5639 2.55835 33 3.42125 33V32C2.91126 32 2.38986 31.7434 1.98394 31.2279L1.19824 31.8465ZM3.42125 33H15.0683V32H3.42125V33ZM15.0683 33C15.9312 33 16.7265 32.5639 17.2913 31.8465L16.5056 31.2279C16.0997 31.7434 15.5783 32 15.0683 32V33ZM17.2913 31.8465C17.8539 31.132 18.1566 30.1835 18.1566 29.2126H17.1566C17.1566 29.9855 16.9139 30.7094 16.5056 31.2279L17.2913 31.8465ZM20.7449 29.2126V17.7151H19.7449V29.2126H20.7449ZM20.7449 17.7151C20.7449 16.3083 20.3058 14.9418 19.5006 13.919L18.7149 14.5376C19.3658 15.3644 19.7449 16.5063 19.7449 17.7151H20.7449ZM19.5006 13.919C18.6931 12.8934 17.5686 12.2841 16.3625 12.2841V13.2841C17.2157 13.2841 18.0663 13.7138 18.7149 14.5376L19.5006 13.919ZM16.3625 12.2841H16.356V13.2841H16.3625V12.2841ZM16.3549 12.2841L4.7143 12.3104L4.71656 13.3104L16.3572 13.2841L16.3549 12.2841ZM23.333 25.9253V16.0747H22.333V25.9253H23.333ZM23.333 16.0747C23.333 14.232 22.7576 12.4474 21.7097 11.1164L20.924 11.735C21.8176 12.87 22.333 14.43 22.333 16.0747H23.333ZM21.7097 11.1164C20.6595 9.78246 19.2059 9 17.6565 9V10C18.853 10 20.0327 10.6029 20.924 11.735L21.7097 11.1164ZM17.6565 9H17.6475V10H17.6565V9ZM17.6464 9L7.30253 9.02137L7.3046 10.0214L17.6485 10L17.6464 9Z" fill="#33343C"/>
</svg>
