<svg width="36" height="45" viewBox="0 0 36 45" fill="none" xmlns="http://www.w3.org/2000/svg">
<g opacity="0.9">
<mask id="mask0_280_11470" style="mask-type:alpha" maskUnits="userSpaceOnUse" x="0" y="0" width="36" height="45">
<path fill-rule="evenodd" clip-rule="evenodd" d="M13.0274 41.3592C15.4064 44.8822 20.5935 44.8822 22.9724 41.3592L32.6676 27.0014C34.7658 24.2062 36 20.7859 36 17.0919C36 7.65236 27.9411 0.00012207 18 0.00012207C8.05887 0.00012207 0 7.65236 0 17.0919C0 20.785 1.23359 24.2046 3.33085 26.9993L13.0274 41.3592Z" fill="white"/>
</mask>
<g mask="url(#mask0_280_11470)">
<path fill-rule="evenodd" clip-rule="evenodd" d="M13.0274 41.3592C15.4064 44.8822 20.5935 44.8822 22.9724 41.3592L32.6676 27.0014C34.7658 24.2062 36 20.7859 36 17.0919C36 7.65236 27.9411 0.00012207 18 0.00012207C8.05887 0.00012207 0 7.65236 0 17.0919C0 20.785 1.23359 24.2046 3.33085 26.9993L13.0274 41.3592Z" fill="#6A92FF"/>
<path d="M22.9724 41.3592L22.1437 40.7996L22.9724 41.3592ZM13.0274 41.3592L13.8562 40.7996L13.0274 41.3592ZM32.6676 27.0014L31.8679 26.401L31.8529 26.421L31.8389 26.4417L32.6676 27.0014ZM3.33085 26.9993L4.1596 26.4397L4.14565 26.4191L4.13068 26.3991L3.33085 26.9993ZM22.1437 40.7996C20.1612 43.7354 15.8386 43.7354 13.8562 40.7996L12.1987 41.9188C14.9741 46.029 21.0257 46.029 23.8012 41.9188L22.1437 40.7996ZM31.8389 26.4417L22.1437 40.7996L23.8012 41.9188L33.4964 27.561L31.8389 26.4417ZM35 17.0919C35 20.5582 33.843 23.7699 31.8679 26.401L33.4674 27.6017C35.6886 24.6426 37 21.0137 37 17.0919H35ZM18 1.00012C27.4383 1.00012 35 8.2528 35 17.0919H37C37 7.05192 28.444 -0.999878 18 -0.999878V1.00012ZM1 17.0919C1 8.2528 8.56174 1.00012 18 1.00012V-0.999878C7.55601 -0.999878 -1 7.05192 -1 17.0919H1ZM4.13068 26.3991C2.15644 23.7683 1 20.5573 1 17.0919H-1C-1 21.0127 0.310727 24.6409 2.53101 27.5996L4.13068 26.3991ZM13.8562 40.7996L4.1596 26.4397L2.5021 27.559L12.1987 41.9188L13.8562 40.7996Z" fill="#6A92FF"/>
<path d="M17.9975 22.5437C18.4348 22.5437 18.8242 22.453 19.1655 22.2717C19.5175 22.0904 19.7895 21.8504 19.9815 21.5517C20.1735 21.253 20.2695 20.933 20.2695 20.5917C20.2695 20.2397 20.1735 19.9144 19.9815 19.6157C19.7895 19.317 19.5175 19.077 19.1655 18.8957C18.8242 18.7144 18.4348 18.6237 17.9975 18.6237C17.5602 18.6237 17.1655 18.7144 16.8135 18.8957C16.4722 19.077 16.2055 19.317 16.0135 19.6157C15.8322 19.9144 15.7415 20.2397 15.7415 20.5917C15.7415 20.933 15.8322 21.253 16.0135 21.5517C16.2055 21.8504 16.4722 22.0904 16.8135 22.2717C17.1655 22.453 17.5602 22.5437 17.9975 22.5437ZM14.1575 20.5917C14.1575 20.0797 14.2855 19.5677 14.5415 19.0557L18.7655 12.5277L20.1735 13.4077L17.7415 17.1037C17.8268 17.093 17.9388 17.0877 18.0775 17.0877C18.1628 17.0877 18.3228 17.0984 18.5575 17.1197C19.1655 17.1624 19.7202 17.3384 20.2215 17.6477C20.7228 17.9464 21.1175 18.3517 21.4055 18.8637C21.6935 19.3757 21.8375 19.9517 21.8375 20.5917C21.8375 21.253 21.6668 21.861 21.3255 22.4157C20.9948 22.9597 20.5362 23.3864 19.9495 23.6957C19.3628 24.005 18.7122 24.1597 17.9975 24.1597C17.2935 24.1597 16.6482 24.005 16.0615 23.6957C15.4748 23.3757 15.0108 22.9437 14.6695 22.3997C14.3282 21.8557 14.1575 21.253 14.1575 20.5917Z" fill="white"/>
</g>
</g>
</svg>
