<svg width="36" height="45" viewBox="0 0 36 45" fill="none" xmlns="http://www.w3.org/2000/svg">
<g opacity="0.9">
<mask id="mask0_280_11466" style="mask-type:alpha" maskUnits="userSpaceOnUse" x="0" y="0" width="36" height="45">
<path fill-rule="evenodd" clip-rule="evenodd" d="M13.0274 41.3592C15.4064 44.8822 20.5935 44.8822 22.9724 41.3592L32.6676 27.0014C34.7658 24.2062 36 20.7859 36 17.0919C36 7.65236 27.9411 0.00012207 18 0.00012207C8.05887 0.00012207 0 7.65236 0 17.0919C0 20.785 1.23359 24.2046 3.33085 26.9993L13.0274 41.3592Z" fill="white"/>
</mask>
<g mask="url(#mask0_280_11466)">
<path fill-rule="evenodd" clip-rule="evenodd" d="M13.0274 41.3592C15.4064 44.8822 20.5935 44.8822 22.9724 41.3592L32.6676 27.0014C34.7658 24.2062 36 20.7859 36 17.0919C36 7.65236 27.9411 0.00012207 18 0.00012207C8.05887 0.00012207 0 7.65236 0 17.0919C0 20.785 1.23359 24.2046 3.33085 26.9993L13.0274 41.3592Z" fill="#6A92FF"/>
<path d="M22.9724 41.3592L22.1437 40.7996L22.9724 41.3592ZM13.0274 41.3592L13.8562 40.7996L13.0274 41.3592ZM32.6676 27.0014L31.8679 26.401L31.8529 26.421L31.8389 26.4417L32.6676 27.0014ZM3.33085 26.9993L4.1596 26.4397L4.14565 26.4191L4.13068 26.3991L3.33085 26.9993ZM22.1437 40.7996C20.1612 43.7354 15.8386 43.7354 13.8562 40.7996L12.1987 41.9188C14.9741 46.029 21.0257 46.029 23.8012 41.9188L22.1437 40.7996ZM31.8389 26.4417L22.1437 40.7996L23.8012 41.9188L33.4964 27.561L31.8389 26.4417ZM35 17.0919C35 20.5582 33.843 23.7699 31.8679 26.401L33.4674 27.6017C35.6886 24.6426 37 21.0137 37 17.0919H35ZM18 1.00012C27.4383 1.00012 35 8.2528 35 17.0919H37C37 7.05192 28.444 -0.999878 18 -0.999878V1.00012ZM1 17.0919C1 8.2528 8.56174 1.00012 18 1.00012V-0.999878C7.55601 -0.999878 -1 7.05192 -1 17.0919H1ZM4.13068 26.3991C2.15644 23.7683 1 20.5573 1 17.0919H-1C-1 21.0127 0.310727 24.6409 2.53101 27.5996L4.13068 26.3991ZM13.8562 40.7996L4.1596 26.4397L2.5021 27.559L12.1987 41.9188L13.8562 40.7996Z" fill="#6A92FF"/>
<path d="M15.9726 15.2797C16.1539 14.9384 16.4152 14.6664 16.7566 14.4637C17.1086 14.2504 17.4872 14.1437 17.8926 14.1437C18.2019 14.1437 18.4899 14.2024 18.7566 14.3197C19.1406 14.4904 19.4339 14.741 19.6366 15.0717C19.8499 15.3917 19.9566 15.7384 19.9566 16.1117C19.9566 16.389 19.8926 16.6664 19.7646 16.9437C19.7006 17.0824 19.5672 17.2637 19.3646 17.4877L14.1966 22.3357V23.8877H21.7966V22.2717H16.6286L20.4526 18.6877C20.7619 18.421 21.0232 18.0637 21.2366 17.6157C21.4606 17.1144 21.5726 16.6077 21.5726 16.0957C21.5726 15.3917 21.3752 14.7464 20.9806 14.1597C20.5859 13.573 20.0526 13.1517 19.3806 12.8957C18.9112 12.693 18.4152 12.5917 17.8926 12.5917C17.1886 12.5917 16.5326 12.7784 15.9246 13.1517C15.3272 13.5144 14.8792 14.0157 14.5806 14.6557C14.4952 14.8157 14.4259 14.997 14.3726 15.1997L15.8446 15.5997L15.9726 15.2797Z" fill="white"/>
</g>
</g>
</svg>
