<svg width="36" height="45" viewBox="0 0 36 45" fill="none" xmlns="http://www.w3.org/2000/svg">
<g opacity="0.9">
<mask id="mask0_280_11463" style="mask-type:alpha" maskUnits="userSpaceOnUse" x="0" y="0" width="36" height="45">
<path fill-rule="evenodd" clip-rule="evenodd" d="M13.0274 41.3592C15.4064 44.8822 20.5935 44.8822 22.9724 41.3592L32.6676 27.0014C34.7658 24.2062 36 20.7859 36 17.0919C36 7.65236 27.9411 0.00012207 18 0.00012207C8.05887 0.00012207 0 7.65236 0 17.0919C0 20.785 1.23359 24.2046 3.33085 26.9993L13.0274 41.3592Z" fill="white"/>
</mask>
<g mask="url(#mask0_280_11463)">
<path fill-rule="evenodd" clip-rule="evenodd" d="M13.0274 41.3592C15.4064 44.8822 20.5935 44.8822 22.9724 41.3592L32.6676 27.0014C34.7658 24.2062 36 20.7859 36 17.0919C36 7.65236 27.9411 0.00012207 18 0.00012207C8.05887 0.00012207 0 7.65236 0 17.0919C0 20.785 1.23359 24.2046 3.33085 26.9993L13.0274 41.3592Z" fill="#6A92FF"/>
<path d="M22.6846 19.5516C22.6846 20.4156 22.466 21.2156 22.0286 21.9516C21.602 22.6769 21.026 23.2529 20.3006 23.6796C19.586 24.1063 18.8286 24.3196 18.0286 24.3196C17.1753 24.3196 16.3913 24.1063 15.6766 23.6796C14.962 23.2529 14.3966 22.6769 13.9806 21.9516C13.5753 21.2263 13.3726 20.4263 13.3726 19.5516V12.4316H15.0526V19.5196C15.0526 20.1063 15.1806 20.6396 15.4366 21.1196C15.7033 21.5889 16.0606 21.9623 16.5086 22.2396C16.9673 22.5063 17.474 22.6396 18.0286 22.6396C18.5513 22.6396 19.042 22.5063 19.5006 22.2396C19.9593 21.9623 20.3273 21.5836 20.6046 21.1036C20.882 20.6236 21.0206 20.0956 21.0206 19.5196V12.4316H22.6846V19.5516Z" fill="white"/>
</g>
</g>
</svg>
