<svg width="36" height="45" viewBox="0 0 36 45" fill="none" xmlns="http://www.w3.org/2000/svg">
<g opacity="0.9">
<mask id="mask0_280_11472" style="mask-type:alpha" maskUnits="userSpaceOnUse" x="0" y="0" width="36" height="45">
<path fill-rule="evenodd" clip-rule="evenodd" d="M13.0274 41.3592C15.4064 44.8822 20.5935 44.8822 22.9724 41.3592L32.6676 27.0014C34.7658 24.2062 36 20.7859 36 17.0919C36 7.65236 27.9411 0.00012207 18 0.00012207C8.05887 0.00012207 0 7.65236 0 17.0919C0 20.785 1.23359 24.2046 3.33085 26.9993L13.0274 41.3592Z" fill="white"/>
</mask>
<g mask="url(#mask0_280_11472)">
<path fill-rule="evenodd" clip-rule="evenodd" d="M13.0274 41.3592C15.4064 44.8822 20.5935 44.8822 22.9724 41.3592L32.6676 27.0014C34.7658 24.2062 36 20.7859 36 17.0919C36 7.65236 27.9411 0.00012207 18 0.00012207C8.05887 0.00012207 0 7.65236 0 17.0919C0 20.785 1.23359 24.2046 3.33085 26.9993L13.0274 41.3592Z" fill="#6A92FF"/>
<path d="M22.9724 41.3592L22.1437 40.7996L22.9724 41.3592ZM13.0274 41.3592L13.8562 40.7996L13.0274 41.3592ZM32.6676 27.0014L31.8679 26.401L31.8529 26.421L31.8389 26.4417L32.6676 27.0014ZM3.33085 26.9993L4.1596 26.4397L4.14565 26.4191L4.13068 26.3991L3.33085 26.9993ZM22.1437 40.7996C20.1612 43.7354 15.8386 43.7354 13.8562 40.7996L12.1987 41.9188C14.9741 46.029 21.0257 46.029 23.8012 41.9188L22.1437 40.7996ZM31.8389 26.4417L22.1437 40.7996L23.8012 41.9188L33.4964 27.561L31.8389 26.4417ZM35 17.0919C35 20.5582 33.843 23.7699 31.8679 26.401L33.4674 27.6017C35.6886 24.6426 37 21.0137 37 17.0919H35ZM18 1.00012C27.4383 1.00012 35 8.2528 35 17.0919H37C37 7.05192 28.444 -0.999878 18 -0.999878V1.00012ZM1 17.0919C1 8.2528 8.56174 1.00012 18 1.00012V-0.999878C7.55601 -0.999878 -1 7.05192 -1 17.0919H1ZM4.13068 26.3991C2.15644 23.7683 1 20.5573 1 17.0919H-1C-1 21.0127 0.310727 24.6409 2.53101 27.5996L4.13068 26.3991ZM13.8562 40.7996L4.1596 26.4397L2.5021 27.559L12.1987 41.9188L13.8562 40.7996Z" fill="#6A92FF"/>
<path d="M18.0083 22.6557C18.4456 22.6557 18.8403 22.5704 19.1923 22.3997C19.5443 22.2184 19.8216 21.9837 20.0243 21.6957C20.227 21.4077 20.3283 21.1037 20.3283 20.7837C20.3283 20.4637 20.227 20.1597 20.0243 19.8717C19.8323 19.5837 19.555 19.3544 19.1923 19.1837C18.8403 19.0024 18.4456 18.9117 18.0083 18.9117C17.5603 18.9117 17.155 19.0024 16.7923 19.1837C16.4403 19.3544 16.163 19.5837 15.9603 19.8717C15.7576 20.1597 15.6563 20.4637 15.6563 20.7837C15.6563 21.1037 15.7576 21.4077 15.9603 21.6957C16.163 21.9837 16.4403 22.2184 16.7923 22.3997C17.155 22.5704 17.5603 22.6557 18.0083 22.6557ZM14.0403 20.7997C14.0403 20.2237 14.2003 19.6957 14.5203 19.2157C14.8403 18.7357 15.2723 18.3517 15.8163 18.0637C15.3683 17.7757 15.0163 17.4237 14.7603 17.0077C14.5043 16.581 14.3763 16.117 14.3763 15.6157C14.3763 15.0397 14.5416 14.517 14.8723 14.0477C15.2136 13.5677 15.6616 13.1944 16.2163 12.9277C16.7816 12.661 17.379 12.5277 18.0083 12.5277C18.6376 12.5277 19.2296 12.661 19.7843 12.9277C20.3496 13.1944 20.7976 13.5677 21.1283 14.0477C21.4696 14.517 21.6403 15.0397 21.6403 15.6157C21.6403 16.117 21.5123 16.581 21.2563 17.0077C21.0003 17.4237 20.6483 17.7757 20.2003 18.0637C20.7336 18.3517 21.155 18.7357 21.4643 19.2157C21.7843 19.6957 21.9443 20.2237 21.9443 20.7997C21.9443 21.429 21.763 22.005 21.4003 22.5277C21.0376 23.0397 20.5523 23.445 19.9443 23.7437C19.3363 24.0317 18.691 24.1757 18.0083 24.1757C17.315 24.1757 16.6643 24.0317 16.0563 23.7437C15.4483 23.445 14.9576 23.0397 14.5843 22.5277C14.2216 22.005 14.0403 21.429 14.0403 20.7997ZM16.0403 15.6317C16.0403 15.8984 16.1256 16.1544 16.2963 16.3997C16.467 16.6344 16.7016 16.8264 17.0003 16.9757C17.299 17.125 17.635 17.1997 18.0083 17.1997C18.3816 17.1997 18.7176 17.125 19.0163 16.9757C19.315 16.8264 19.5496 16.6344 19.7203 16.3997C19.891 16.1544 19.9763 15.8984 19.9763 15.6317C19.9763 15.365 19.891 15.1144 19.7203 14.8797C19.5603 14.6344 19.3256 14.437 19.0163 14.2877C18.7176 14.1384 18.3816 14.0637 18.0083 14.0637C17.635 14.0637 17.2936 14.1384 16.9843 14.2877C16.6856 14.437 16.451 14.6344 16.2803 14.8797C16.1203 15.1144 16.0403 15.365 16.0403 15.6317Z" fill="white"/>
</g>
</g>
</svg>
