<svg width="36" height="45" viewBox="0 0 36 45" fill="none" xmlns="http://www.w3.org/2000/svg">
<g opacity="0.9">
<mask id="mask0_280_11467" style="mask-type:alpha" maskUnits="userSpaceOnUse" x="0" y="0" width="36" height="45">
<path fill-rule="evenodd" clip-rule="evenodd" d="M13.0274 41.3592C15.4064 44.8822 20.5935 44.8822 22.9724 41.3592L32.6676 27.0014C34.7658 24.2062 36 20.7859 36 17.0919C36 7.65236 27.9411 0.00012207 18 0.00012207C8.05887 0.00012207 0 7.65236 0 17.0919C0 20.785 1.23359 24.2046 3.33085 26.9993L13.0274 41.3592Z" fill="white"/>
</mask>
<g mask="url(#mask0_280_11467)">
<path fill-rule="evenodd" clip-rule="evenodd" d="M13.0274 41.3592C15.4064 44.8822 20.5935 44.8822 22.9724 41.3592L32.6676 27.0014C34.7658 24.2062 36 20.7859 36 17.0919C36 7.65236 27.9411 0.00012207 18 0.00012207C8.05887 0.00012207 0 7.65236 0 17.0919C0 20.785 1.23359 24.2046 3.33085 26.9993L13.0274 41.3592Z" fill="#6A92FF"/>
<path d="M22.9724 41.3592L22.1437 40.7996L22.9724 41.3592ZM13.0274 41.3592L13.8562 40.7996L13.0274 41.3592ZM32.6676 27.0014L31.8679 26.401L31.8529 26.421L31.8389 26.4417L32.6676 27.0014ZM3.33085 26.9993L4.1596 26.4397L4.14565 26.4191L4.13068 26.3991L3.33085 26.9993ZM22.1437 40.7996C20.1612 43.7354 15.8386 43.7354 13.8562 40.7996L12.1987 41.9188C14.9741 46.029 21.0257 46.029 23.8012 41.9188L22.1437 40.7996ZM31.8389 26.4417L22.1437 40.7996L23.8012 41.9188L33.4964 27.561L31.8389 26.4417ZM35 17.0919C35 20.5582 33.843 23.7699 31.8679 26.401L33.4674 27.6017C35.6886 24.6426 37 21.0137 37 17.0919H35ZM18 1.00012C27.4383 1.00012 35 8.2528 35 17.0919H37C37 7.05192 28.444 -0.999878 18 -0.999878V1.00012ZM1 17.0919C1 8.2528 8.56174 1.00012 18 1.00012V-0.999878C7.55601 -0.999878 -1 7.05192 -1 17.0919H1ZM4.13068 26.3991C2.15644 23.7683 1 20.5573 1 17.0919H-1C-1 21.0127 0.310727 24.6409 2.53101 27.5996L4.13068 26.3991ZM13.8562 40.7996L4.1596 26.4397L2.5021 27.559L12.1987 41.9188L13.8562 40.7996Z" fill="#6A92FF"/>
<path d="M20.1118 18.1277C20.6344 18.4264 21.0664 18.8104 21.4078 19.2797C21.7491 19.749 21.9198 20.2557 21.9198 20.7997C21.9198 21.429 21.7491 21.9997 21.4078 22.5117C21.0771 23.013 20.6131 23.4077 20.0158 23.6957C19.4184 23.9837 18.7464 24.1277 17.9998 24.1277C17.2424 24.1277 16.5651 23.9837 15.9678 23.6957C15.3704 23.4077 14.9011 23.0024 14.5598 22.4797C14.2291 21.957 14.0638 21.365 14.0638 20.7037H15.6478C15.6478 21.0237 15.7384 21.3277 15.9198 21.6157C16.1118 21.893 16.3838 22.1224 16.7358 22.3037C17.0984 22.4744 17.5198 22.5597 17.9998 22.5597C18.4798 22.5597 18.8958 22.4744 19.2478 22.3037C19.6104 22.1224 19.8878 21.893 20.0798 21.6157C20.2718 21.3277 20.3678 21.029 20.3678 20.7197C20.3678 20.2077 20.1704 19.7704 19.7758 19.4077C19.3918 19.045 18.8104 18.8637 18.0318 18.8637H17.1998V17.3597H18.0318C18.7038 17.3597 19.2318 17.1997 19.6158 16.8797C20.0104 16.549 20.2078 16.1544 20.2078 15.6957C20.2078 15.4184 20.1224 15.157 19.9518 14.9117C19.7811 14.6557 19.5358 14.453 19.2158 14.3037C18.8958 14.1437 18.5224 14.0637 18.0958 14.0637C17.6691 14.0637 17.2958 14.1437 16.9758 14.3037C16.6558 14.453 16.4104 14.6557 16.2398 14.9117C16.0798 15.1677 15.9998 15.4344 15.9998 15.7117H14.4158C14.4158 15.093 14.5758 14.5437 14.8958 14.0637C15.2158 13.573 15.6531 13.1944 16.2078 12.9277C16.7731 12.6504 17.4024 12.5117 18.0958 12.5117C18.7891 12.5117 19.4131 12.645 19.9678 12.9117C20.5224 13.1784 20.9598 13.5517 21.2798 14.0317C21.5998 14.501 21.7598 15.029 21.7598 15.6157C21.7598 16.117 21.6051 16.5864 21.2958 17.0237C20.9971 17.4504 20.6024 17.8184 20.1118 18.1277Z" fill="white"/>
</g>
</g>
</svg>
