<svg width="36" height="45" viewBox="0 0 36 45" fill="none" xmlns="http://www.w3.org/2000/svg">
<g opacity="0.9">
<mask id="mask0_280_11473" style="mask-type:alpha" maskUnits="userSpaceOnUse" x="0" y="0" width="36" height="45">
<path fill-rule="evenodd" clip-rule="evenodd" d="M13.0274 41.3636C15.4064 44.8866 20.5935 44.8866 22.9724 41.3636L32.6676 27.0058C34.7658 24.2106 36 20.7903 36 17.0963C36 7.65676 27.9411 0.0045166 18 0.0045166C8.05887 0.0045166 0 7.65676 0 17.0963C0 20.7894 1.23359 24.209 3.33085 27.0037L13.0274 41.3636Z" fill="white"/>
</mask>
<g mask="url(#mask0_280_11473)">
<path fill-rule="evenodd" clip-rule="evenodd" d="M13.0274 41.3636C15.4064 44.8866 20.5935 44.8866 22.9724 41.3636L32.6676 27.0058C34.7658 24.2106 36 20.7903 36 17.0963C36 7.65676 27.9411 0.0045166 18 0.0045166C8.05887 0.0045166 0 7.65676 0 17.0963C0 20.7894 1.23359 24.209 3.33085 27.0037L13.0274 41.3636Z" fill="#6A92FF"/>
<path d="M14.4975 17.9724C14.9348 17.9724 15.3242 17.8817 15.6655 17.7004C16.0068 17.5191 16.2735 17.2737 16.4655 16.9644C16.6575 16.6551 16.7535 16.3244 16.7535 15.9724C16.7535 15.6204 16.6575 15.2951 16.4655 14.9964C16.2735 14.6871 16.0068 14.4417 15.6655 14.2604C15.3242 14.0791 14.9348 13.9884 14.4975 13.9884C14.0602 13.9884 13.6708 14.0791 13.3295 14.2604C12.9882 14.4417 12.7215 14.6871 12.5295 14.9964C12.3375 15.2951 12.2415 15.6204 12.2415 15.9724C12.2415 16.3244 12.3375 16.6551 12.5295 16.9644C12.7215 17.2737 12.9882 17.5191 13.3295 17.7004C13.6708 17.8817 14.0602 17.9724 14.4975 17.9724ZM10.6575 15.9724C10.6575 15.3111 10.8282 14.7084 11.1695 14.1644C11.5108 13.6204 11.9748 13.1937 12.5615 12.8844C13.1482 12.5644 13.7988 12.4044 14.5135 12.4044C15.2175 12.4044 15.8575 12.5644 16.4335 12.8844C17.0202 13.1937 17.4788 13.6204 17.8095 14.1644C18.1508 14.7084 18.3215 15.3111 18.3215 15.9724C18.3215 16.5271 18.2042 17.0337 17.9695 17.4924L13.7455 23.9884L12.3375 23.1244L14.7215 19.4604L14.5295 19.4764C14.3802 19.4764 14.1455 19.4497 13.8255 19.3964C13.1855 19.3217 12.6255 19.1244 12.1455 18.8044C11.6655 18.4844 11.2975 18.0791 11.0415 17.5884C10.7855 17.0871 10.6575 16.5484 10.6575 15.9724Z" fill="#FAF8FF"/>
<path d="M23.7997 15.5H22.1997V21.5H23.7997V15.5Z" fill="#FAF8FF"/>
<path d="M20 17.6998V19.2998H26V17.6998H20Z" fill="#FAF8FF"/>
</g>
</g>
</svg>
