<svg width="36" height="45" viewBox="0 0 36 45" fill="none" xmlns="http://www.w3.org/2000/svg">
<mask id="mask0_664_36471" style="mask-type:alpha" maskUnits="userSpaceOnUse" x="0" y="0" width="36" height="45">
<path fill-rule="evenodd" clip-rule="evenodd" d="M13.0274 41.3592C15.4064 44.8822 20.5935 44.8822 22.9724 41.3592L32.6676 27.0014C34.7658 24.2062 36 20.7859 36 17.0919C36 7.65236 27.9411 0.00012207 18 0.00012207C8.05887 0.00012207 0 7.65236 0 17.0919C0 20.785 1.23359 24.2046 3.33085 26.9993L13.0274 41.3592Z" fill="white"/>
</mask>
<g mask="url(#mask0_664_36471)">
<path fill-rule="evenodd" clip-rule="evenodd" d="M13.0274 41.3592C15.4064 44.8822 20.5935 44.8822 22.9724 41.3592L32.6676 27.0014C34.7658 24.2062 36 20.7859 36 17.0919C36 7.65236 27.9411 0.00012207 18 0.00012207C8.05887 0.00012207 0 7.65236 0 17.0919C0 20.785 1.23359 24.2046 3.33085 26.9993L13.0274 41.3592Z" fill="#FAF8FF"/>
<path d="M22.9724 41.3592L21.6464 40.4638L22.9724 41.3592ZM13.0274 41.3592L14.3534 40.4638L13.0274 41.3592ZM32.6676 27.0014L31.388 26.0408L31.364 26.0728L31.3416 26.106L32.6676 27.0014ZM3.33084 26.9993L4.65684 26.104L4.63452 26.0709L4.61057 26.039L3.33084 26.9993ZM21.6464 40.4638C19.9019 43.0474 16.098 43.0474 14.3534 40.4638L11.7014 42.2546C14.7148 46.7171 21.2851 46.7171 24.2984 42.2546L21.6464 40.4638ZM31.3416 26.106L21.6464 40.4638L24.2984 42.2546L33.9936 27.8968L31.3416 26.106ZM34.4 17.0919C34.4 20.4215 33.2893 23.508 31.388 26.0408L33.9472 27.9619C36.2423 24.9045 37.6 21.1503 37.6 17.0919H34.4ZM18 1.60015C27.1365 1.60015 34.4 8.61309 34.4 17.0919H37.6C37.6 6.69168 28.7457 -1.59985 18 -1.59985V1.60015ZM1.59999 17.0919C1.59999 8.61309 8.86345 1.60015 18 1.60015V-1.59985C7.25428 -1.59985 -1.60001 6.69168 -1.60001 17.0919H1.59999ZM4.61057 26.039C2.71015 23.5065 1.59999 20.4207 1.59999 17.0919H-1.60001C-1.60001 21.1493 -0.242994 24.9026 2.0511 27.9597L4.61057 26.039ZM14.3534 40.4638L4.65684 26.104L2.00484 27.8947L11.7014 42.2546L14.3534 40.4638Z" fill="#6A92FF"/>
<path d="M22.6846 19.5516C22.6846 20.4156 22.466 21.2156 22.0286 21.9516C21.602 22.6769 21.026 23.2529 20.3006 23.6796C19.586 24.1063 18.8286 24.3196 18.0286 24.3196C17.1753 24.3196 16.3913 24.1063 15.6766 23.6796C14.962 23.2529 14.3966 22.6769 13.9806 21.9516C13.5753 21.2263 13.3726 20.4263 13.3726 19.5516V12.4316H15.0526V19.5196C15.0526 20.1063 15.1806 20.6396 15.4366 21.1196C15.7033 21.5889 16.0606 21.9623 16.5086 22.2396C16.9673 22.5063 17.474 22.6396 18.0286 22.6396C18.5513 22.6396 19.042 22.5063 19.5006 22.2396C19.9593 21.9623 20.3273 21.5836 20.6046 21.1036C20.882 20.6236 21.0206 20.0956 21.0206 19.5196V12.4316H22.6846V19.5516Z" fill="#6A92FF"/>
</g>
</svg>
