<svg width="36" height="45" viewBox="0 0 36 45" fill="none" xmlns="http://www.w3.org/2000/svg">
<g opacity="0.9">
<mask id="mask0_280_11469" style="mask-type:alpha" maskUnits="userSpaceOnUse" x="0" y="0" width="36" height="45">
<path fill-rule="evenodd" clip-rule="evenodd" d="M13.0274 41.3592C15.4064 44.8822 20.5935 44.8822 22.9724 41.3592L32.6676 27.0014C34.7658 24.2062 36 20.7859 36 17.0919C36 7.65236 27.9411 0.00012207 18 0.00012207C8.05887 0.00012207 0 7.65236 0 17.0919C0 20.785 1.23359 24.2046 3.33085 26.9993L13.0274 41.3592Z" fill="white"/>
</mask>
<g mask="url(#mask0_280_11469)">
<path fill-rule="evenodd" clip-rule="evenodd" d="M13.0274 41.3592C15.4064 44.8822 20.5935 44.8822 22.9724 41.3592L32.6676 27.0014C34.7658 24.2062 36 20.7859 36 17.0919C36 7.65236 27.9411 0.00012207 18 0.00012207C8.05887 0.00012207 0 7.65236 0 17.0919C0 20.785 1.23359 24.2046 3.33085 26.9993L13.0274 41.3592Z" fill="#6A92FF"/>
<path d="M22.9724 41.3592L22.1437 40.7996L22.9724 41.3592ZM13.0274 41.3592L13.8562 40.7996L13.0274 41.3592ZM32.6676 27.0014L31.8679 26.401L31.8529 26.421L31.8389 26.4417L32.6676 27.0014ZM3.33085 26.9993L4.1596 26.4397L4.14565 26.4191L4.13068 26.3991L3.33085 26.9993ZM22.1437 40.7996C20.1612 43.7354 15.8386 43.7354 13.8562 40.7996L12.1987 41.9188C14.9741 46.029 21.0257 46.029 23.8012 41.9188L22.1437 40.7996ZM31.8389 26.4417L22.1437 40.7996L23.8012 41.9188L33.4964 27.561L31.8389 26.4417ZM35 17.0919C35 20.5582 33.843 23.7699 31.8679 26.401L33.4674 27.6017C35.6886 24.6426 37 21.0137 37 17.0919H35ZM18 1.00012C27.4383 1.00012 35 8.2528 35 17.0919H37C37 7.05192 28.444 -0.999878 18 -0.999878V1.00012ZM1 17.0919C1 8.2528 8.56174 1.00012 18 1.00012V-0.999878C7.55601 -0.999878 -1 7.05192 -1 17.0919H1ZM4.13068 26.3991C2.15644 23.7683 1 20.5573 1 17.0919H-1C-1 21.0127 0.310727 24.6409 2.53101 27.5996L4.13068 26.3991ZM13.8562 40.7996L4.1596 26.4397L2.5021 27.559L12.1987 41.9188L13.8562 40.7996Z" fill="#6A92FF"/>
<path d="M18.1426 16.7037C18.8466 16.7037 19.4813 16.8744 20.0466 17.2157C20.6226 17.5464 21.0706 17.9997 21.3906 18.5757C21.7213 19.141 21.8866 19.765 21.8866 20.4477C21.8866 21.141 21.716 21.7757 21.3746 22.3517C21.0333 22.917 20.5693 23.365 19.9826 23.6957C19.4066 24.0157 18.7613 24.1757 18.0466 24.1757C17.332 24.1757 16.6333 24.0157 15.9506 23.6957C15.268 23.365 14.74 22.9277 14.3666 22.3837L14.1106 22.0157L15.5506 21.2637L15.7266 21.5037C15.9506 21.8024 16.276 22.053 16.7026 22.2557C17.1293 22.4477 17.5773 22.5437 18.0466 22.5437C18.4733 22.5437 18.8573 22.453 19.1986 22.2717C19.5506 22.0797 19.8226 21.8237 20.0146 21.5037C20.2173 21.1837 20.3186 20.8317 20.3186 20.4477C20.3186 19.8397 20.1 19.333 19.6626 18.9277C19.2253 18.5117 18.6866 18.3037 18.0466 18.3037C17.6733 18.3037 17.3 18.3677 16.9266 18.4957C16.5533 18.6237 16.244 18.7997 15.9986 19.0237L14.8466 18.3677L14.9906 12.6237H21.2146V14.1917H16.4946L16.4306 17.1037C16.996 16.837 17.5666 16.7037 18.1426 16.7037Z" fill="white"/>
</g>
</g>
</svg>
