<svg width="36" height="45" viewBox="0 0 36 45" fill="none" xmlns="http://www.w3.org/2000/svg">
<mask id="mask0_664_36472" style="mask-type:alpha" maskUnits="userSpaceOnUse" x="0" y="0" width="36" height="45">
<path fill-rule="evenodd" clip-rule="evenodd" d="M13.0274 41.3592C15.4064 44.8822 20.5935 44.8822 22.9724 41.3592L32.6676 27.0014C34.7658 24.2062 36 20.7859 36 17.0919C36 7.65236 27.9411 0.00012207 18 0.00012207C8.05887 0.00012207 0 7.65236 0 17.0919C0 20.785 1.23359 24.2046 3.33085 26.9993L13.0274 41.3592Z" fill="white"/>
</mask>
<g mask="url(#mask0_664_36472)">
<path fill-rule="evenodd" clip-rule="evenodd" d="M13.0274 41.3592C15.4064 44.8822 20.5935 44.8822 22.9724 41.3592L32.6676 27.0014C34.7658 24.2062 36 20.7859 36 17.0919C36 7.65236 27.9411 0.00012207 18 0.00012207C8.05887 0.00012207 0 7.65236 0 17.0919C0 20.785 1.23359 24.2046 3.33085 26.9993L13.0274 41.3592Z" fill="#FAF8FF"/>
<path d="M22.9724 41.3592L21.6464 40.4638L22.9724 41.3592ZM13.0274 41.3592L14.3534 40.4638L13.0274 41.3592ZM32.6676 27.0014L31.388 26.0408L31.364 26.0728L31.3416 26.106L32.6676 27.0014ZM3.33084 26.9993L4.65684 26.104L4.63452 26.0709L4.61057 26.039L3.33084 26.9993ZM21.6464 40.4638C19.9019 43.0474 16.098 43.0474 14.3534 40.4638L11.7014 42.2546C14.7148 46.7171 21.2851 46.7171 24.2984 42.2546L21.6464 40.4638ZM31.3416 26.106L21.6464 40.4638L24.2984 42.2546L33.9936 27.8968L31.3416 26.106ZM34.4 17.0919C34.4 20.4215 33.2893 23.508 31.388 26.0408L33.9472 27.9619C36.2423 24.9045 37.6 21.1503 37.6 17.0919H34.4ZM18 1.60015C27.1365 1.60015 34.4 8.6131 34.4 17.0919H37.6C37.6 6.69169 28.7457 -1.59985 18 -1.59985V1.60015ZM1.59999 17.0919C1.59999 8.6131 8.86345 1.60015 18 1.60015V-1.59985C7.25428 -1.59985 -1.60001 6.69169 -1.60001 17.0919H1.59999ZM4.61057 26.039C2.71015 23.5065 1.59999 20.4207 1.59999 17.0919H-1.60001C-1.60001 21.1493 -0.242994 24.9026 2.0511 27.9597L4.61057 26.039ZM14.3534 40.4638L4.65684 26.104L2.00484 27.8947L11.7014 42.2546L14.3534 40.4638Z" fill="#6A92FF"/>
<path d="M19.9403 21.328C20.1643 20.976 20.3083 20.5707 20.3723 20.112C20.4363 19.6533 20.4683 19.0187 20.4683 18.208C20.4683 17.3973 20.4363 16.768 20.3723 16.32C20.3083 15.872 20.1643 15.472 19.9403 15.12C19.5776 14.384 18.9269 14.016 17.9883 14.016C17.0709 14.016 16.4203 14.3787 16.0363 15.104C15.8229 15.4667 15.6843 15.8773 15.6203 16.336C15.5563 16.784 15.5243 17.408 15.5243 18.208C15.5243 19.0187 15.5563 19.6533 15.6203 20.112C15.6843 20.56 15.8229 20.96 16.0363 21.312C16.4203 22.048 17.0709 22.416 17.9883 22.416C18.9269 22.416 19.5776 22.0533 19.9403 21.328ZM13.8763 18.208C13.8763 17.2587 13.9189 16.4907 14.0043 15.904C14.0896 15.3067 14.2923 14.7467 14.6123 14.224C14.8896 13.7227 15.3056 13.2907 15.8603 12.928C16.4149 12.5653 17.1243 12.384 17.9883 12.384C18.8629 12.384 19.5723 12.5653 20.1163 12.928C20.6709 13.2907 21.0923 13.7227 21.3802 14.224C21.7003 14.7467 21.8976 15.3013 21.9722 15.888C22.0576 16.464 22.1003 17.2373 22.1003 18.208C22.1003 19.1893 22.0576 19.9733 21.9722 20.56C21.8976 21.1467 21.7003 21.7013 21.3802 22.224C21.1029 22.7253 20.6869 23.1573 20.1323 23.52C19.5776 23.8827 18.8629 24.064 17.9883 24.064C17.1243 24.064 16.4149 23.8827 15.8603 23.52C15.3163 23.1573 14.9003 22.7253 14.6123 22.224C14.2923 21.6907 14.0896 21.1253 14.0043 20.528C13.9189 19.9307 13.8763 19.1573 13.8763 18.208Z" fill="#6A92FF"/>
</g>
</svg>
