<svg width="18" height="16" viewBox="0 0 18 16" fill="none" xmlns="http://www.w3.org/2000/svg">
<path d="M13.5 11.6746C13.5 11.6746 11.009 13.9335 9 13.9335C6.99104 13.9335 4.5 11.6746 4.5 11.6746V9.28784L3.21429 8.65037V12.3456C3.21429 12.3456 6.41705 15.25 9 15.25C11.5829 15.25 14.7857 12.3456 14.7857 12.3456V8.65037L13.5 9.28784V11.6746Z" fill="#33343C" fill-opacity="0.7"/>
<path d="M9 0.75L0 4.91472V5.90918L9 10.3713L16.7143 6.54665V9.71508H18V4.91472L9 0.75ZM9 9.0589L1.68031 5.42966L9 2.0425L16.3197 5.42966L9 9.0589Z" fill="#33343C" fill-opacity="0.7"/>
</svg>
