<svg width="30" height="30" viewBox="0 0 30 30" fill="none" xmlns="http://www.w3.org/2000/svg">
<path d="M30 15C30 23.2843 23.2843 30 15 30C6.71573 30 0 23.2843 0 15C0 6.71573 6.71573 0 15 0C23.2843 0 30 6.71573 30 15Z" fill="#FC94AF"/>
<path d="M10.3945 18.726H8.72951L5.14751 13.587V18.726H3.90551V11.976H5.50751L9.16151 17.106V11.976H10.3945V18.726Z" fill="white"/>
<path d="M16.2747 13.173H12.7827V14.649H15.9777V15.864H12.7827V17.52H16.2747V18.726H11.5677V11.976H16.2747V13.173Z" fill="white"/>
<path d="M24.6238 18.726H23.4358L21.9868 14.037L20.2768 18.726H19.1248L16.9468 11.976H18.2068L19.7638 16.854L21.3118 11.976H22.6258L24.0748 16.854L25.5148 11.976H26.7658L24.6238 18.726Z" fill="white"/>
</svg>
