<svg width="24" height="24" viewBox="0 0 24 24" fill="none" xmlns="http://www.w3.org/2000/svg">
<rect x="3" y="3" width="18" height="18" rx="9" stroke="black"/>
<circle cx="12" cy="8.5" r="2.5" stroke="#33343C" stroke-linecap="round"/>
<path d="M16.6746 17.2258C16.3237 16.3012 15.7065 15.5015 14.9011 14.9277C14.0957 14.3539 13.1382 14.0319 12.1497 14.0022C11.1613 13.9726 10.1862 14.2368 9.34791 14.7613C8.50958 15.2859 7.84561 16.0472 7.43998 16.9491L7.89598 17.1542C8.26105 16.3425 8.85862 15.6573 9.61312 15.1852C10.3676 14.7131 11.2452 14.4754 12.1348 14.502C13.0244 14.5287 13.8861 14.8185 14.611 15.3349C15.3359 15.8514 15.8914 16.5711 16.2072 17.4032L16.6746 17.2258Z" stroke="#33343C" stroke-width="0.6" stroke-linecap="round"/>
</svg>
