<svg width="25" height="42" viewBox="0 0 25 42" fill="none" xmlns="http://www.w3.org/2000/svg">
<path d="M12.6673 9.00111L12.6742 8.50116L12.674 8.50116L12.6673 9.00111ZM0.501115 21.1673L0.00116048 21.174L0.00116325 21.1742L0.501115 21.1673ZM12.3327 32.9989L12.3257 33.4988L12.3259 33.4988L12.3327 32.9989ZM24.4977 20.8338L24.9977 20.827L24.9977 20.827L24.4977 20.8338ZM17.7397 26.1537L17.4696 26.5745L17.4726 26.5764L17.7397 26.1537ZM7.26029 26.1537L7.52731 26.5765L7.53035 26.5745L7.26029 26.1537ZM12.674 8.50116C5.64441 8.40621 -0.0937856 14.1444 0.00116052 21.174L1.00107 21.1605C0.913725 14.6937 6.19372 9.41372 12.6605 9.50107L12.674 8.50116ZM0.00116325 21.1742C0.0949189 27.9168 5.58315 33.4051 12.3257 33.4988L12.3396 32.4989C6.13846 32.4127 1.08729 27.3615 1.00107 21.1603L0.00116325 21.1742ZM12.3259 33.4988C19.3567 33.595 25.0938 27.8567 24.9977 20.827L23.9978 20.8407C24.0862 27.3075 18.8074 32.5874 12.3395 32.4989L12.3259 33.4988ZM24.9977 20.827C24.9051 14.0832 19.4168 8.59492 12.6742 8.50116L12.6603 9.50107C18.8615 9.58729 23.9126 14.6384 23.9978 20.8407L24.9977 20.827ZM20.0031 27.5571C19.4511 26.8349 18.7752 26.2166 18.0068 25.731L17.4726 26.5764C18.1408 26.9987 18.7286 27.5363 19.2086 28.1643L20.0031 27.5571ZM18.0097 25.7329C16.4529 24.7338 14.4964 24.1919 12.5 24.1919V25.1919C14.3236 25.1919 16.0891 25.6885 17.4696 26.5745L18.0097 25.7329ZM12.5 24.1919C10.5036 24.1919 8.54707 24.7338 6.99023 25.7329L7.53035 26.5745C8.91092 25.6885 10.6763 25.1919 12.5 25.1919V24.1919ZM6.99327 25.731C6.22489 26.2163 5.54891 26.8344 4.99691 27.5564L5.79132 28.1638C6.27133 27.536 6.85914 26.9985 7.5273 26.5765L6.99327 25.731ZM16 19C16 20.933 14.433 22.5 12.5 22.5V23.5C14.9853 23.5 17 21.4853 17 19H16ZM12.5 22.5C10.567 22.5 9 20.933 9 19H8C8 21.4853 10.0147 23.5 12.5 23.5V22.5ZM9 19C9 17.067 10.567 15.5 12.5 15.5V14.5C10.0147 14.5 8 16.5147 8 19H9ZM12.5 15.5C14.433 15.5 16 17.067 16 19H17C17 16.5147 14.9853 14.5 12.5 14.5V15.5Z" fill="#33343C" fill-opacity="0.7"/>
</svg>
