<svg width="24" height="24" viewBox="0 0 24 24" fill="none" xmlns="http://www.w3.org/2000/svg">
<path fill-rule="evenodd" clip-rule="evenodd" d="M3 12C3 7.02944 7.02944 3 12 3C16.9706 3 21 7.02944 21 12C21 16.9706 16.9706 21 12 21C7.02944 21 3 16.9706 3 12ZM12 6.5C10.8954 6.5 10 7.39543 10 8.5C10 9.60457 10.8954 10.5 12 10.5C13.1046 10.5 14 9.60457 14 8.5C14 7.39543 13.1046 6.5 12 6.5ZM9 8.5C9 6.84315 10.3431 5.5 12 5.5C13.6569 5.5 15 6.84315 15 8.5C15 10.1569 13.6569 11.5 12 11.5C10.3431 11.5 9 10.1569 9 8.5ZM12.1587 13.7024C11.111 13.671 10.0774 13.951 9.18878 14.507C8.30015 15.063 7.59635 15.87 7.16638 16.826L7.04333 17.0996L7.31693 17.2227L7.77293 17.4278L8.04653 17.5508L8.16958 17.2772C8.51031 16.5197 9.06804 15.8801 9.77224 15.4395C10.4764 14.9989 11.2955 14.777 12.1258 14.8019C12.9561 14.8268 13.7604 15.0973 14.4369 15.5793C15.1135 16.0613 15.6319 16.733 15.9267 17.5097L16.0331 17.7901L16.3136 17.6837L16.7811 17.5063L17.0616 17.3998L16.9551 17.1193C16.5832 16.1393 15.9289 15.2916 15.0752 14.6834C14.2214 14.0752 13.2065 13.7338 12.1587 13.7024Z" fill="#33343C"/>
</svg>
