<svg width="17" height="17" viewBox="0 0 17 17" fill="none" xmlns="http://www.w3.org/2000/svg">
<path d="M16.8311 1.67169C16.9395 1.78047 17.0004 1.92779 17.0004 2.08138C17.0004 2.23497 16.9395 2.38229 16.8311 2.49106L15.6206 3.70271L13.2994 1.38155L14.5099 0.169901C14.6188 0.0611136 14.7663 0 14.9202 0C15.0741 0 15.2216 0.0611136 15.3305 0.169901L16.8311 1.67053V1.67169ZM14.8001 4.52208L12.4789 2.20092L4.57188 10.1091C4.508 10.173 4.45992 10.2509 4.43145 10.3366L3.49718 13.1382C3.48024 13.1893 3.47783 13.2441 3.49023 13.2965C3.50263 13.3488 3.52935 13.3967 3.5674 13.4348C3.60545 13.4728 3.65334 13.4995 3.7057 13.5119C3.75807 13.5243 3.81285 13.5219 3.86392 13.505L6.66557 12.5707C6.75118 12.5426 6.82906 12.4949 6.89304 12.4314L14.8001 4.52324V4.52208Z" fill="#33343C" fill-opacity="0.7"/>
<path fill-rule="evenodd" clip-rule="evenodd" d="M0 15.0912C0 15.553 0.183413 15.9958 0.50989 16.3222C0.836366 16.6487 1.27916 16.8321 1.74087 16.8321H14.5073C14.969 16.8321 15.4118 16.6487 15.7382 16.3222C16.0647 15.9958 16.2481 15.553 16.2481 15.0912V8.12776C16.2481 7.97386 16.187 7.82626 16.0782 7.71743C15.9693 7.60861 15.8217 7.54747 15.6678 7.54747C15.5139 7.54747 15.3663 7.60861 15.2575 7.71743C15.1487 7.82626 15.0876 7.97386 15.0876 8.12776V15.0912C15.0876 15.2452 15.0264 15.3928 14.9176 15.5016C14.8088 15.6104 14.6612 15.6715 14.5073 15.6715H1.74087C1.58697 15.6715 1.43937 15.6104 1.33054 15.5016C1.22172 15.3928 1.16058 15.2452 1.16058 15.0912V2.32486C1.16058 2.17095 1.22172 2.02335 1.33054 1.91453C1.43937 1.8057 1.58697 1.74457 1.74087 1.74457H9.28465C9.43855 1.74457 9.58615 1.68343 9.69498 1.5746C9.8038 1.46578 9.86494 1.31818 9.86494 1.16427C9.86494 1.01037 9.8038 0.862773 9.69498 0.753948C9.58615 0.645122 9.43855 0.583984 9.28465 0.583984H1.74087C1.27916 0.583984 0.836366 0.767397 0.50989 1.09387C0.183413 1.42035 0 1.86315 0 2.32486V15.0912Z" fill="#33343C" fill-opacity="0.7"/>
</svg>
