<svg width="25" height="42" viewBox="0 0 25 42" fill="none" xmlns="http://www.w3.org/2000/svg">
<circle cx="12.5" cy="21" r="12.5" fill="#A180FF"/>
<path d="M17.744 26.1537L17.4739 26.5745L17.4769 26.5764L17.744 26.1537ZM7.26461 26.1537L7.53163 26.5765L7.53467 26.5745L7.26461 26.1537ZM20.0074 27.5571C19.4555 26.8349 18.7795 26.2166 18.0111 25.731L17.4769 26.5764C18.1451 26.9987 18.7329 27.5363 19.2129 28.1643L20.0074 27.5571ZM18.0141 25.7329C16.4572 24.7338 14.5007 24.1919 12.5043 24.1919V25.1919C14.328 25.1919 16.0934 25.6885 17.4739 26.5745L18.0141 25.7329ZM12.5043 24.1919C10.5079 24.1919 8.55139 24.7338 6.99455 25.7329L7.53467 26.5745C8.91524 25.6885 10.6806 25.1919 12.5043 25.1919V24.1919ZM6.99759 25.731C6.22921 26.2163 5.55323 26.8344 5.00123 27.5564L5.79564 28.1638C6.27565 27.536 6.86346 26.9985 7.53162 26.5765L6.99759 25.731ZM16.0043 19C16.0043 20.933 14.4373 22.5 12.5043 22.5V23.5C14.9896 23.5 17.0043 21.4853 17.0043 19H16.0043ZM12.5043 22.5C10.5713 22.5 9.00432 20.933 9.00432 19H8.00432C8.00432 21.4853 10.019 23.5 12.5043 23.5V22.5ZM9.00432 19C9.00432 17.067 10.5713 15.5 12.5043 15.5V14.5C10.019 14.5 8.00432 16.5147 8.00432 19H9.00432ZM12.5043 15.5C14.4373 15.5 16.0043 17.067 16.0043 19H17.0043C17.0043 16.5147 14.9896 14.5 12.5043 14.5V15.5Z" fill="white"/>
</svg>
