<svg width="24" height="24" viewBox="0 0 24 24" fill="none" xmlns="http://www.w3.org/2000/svg">
<path d="M12.1688 17.6873L12.7316 17.1188L11.5946 15.9931L11.0318 16.5616L12.1688 17.6873ZM9.9554 18.7859L9.38688 18.223L8.92238 18.6922L9.29492 19.2373L9.9554 18.7859ZM10.5987 21.1448L11.0501 21.8053L12.371 20.9025L11.9196 20.242L10.5987 21.1448ZM11.0318 16.5616L9.38688 18.223L10.5239 19.3487L12.1688 17.6873L11.0318 16.5616ZM9.29492 19.2373L10.5987 21.1448L11.9196 20.242L10.6159 18.3345L9.29492 19.2373Z" fill="#33343C"/>
<path d="M5.0718 15C4.16543 13.4301 3.8191 11.599 4.08952 9.80654C4.35995 8.0141 5.2311 6.36664 6.56028 5.13405C7.88945 3.90145 9.59783 3.15682 11.4055 3.02212C13.2133 2.88742 15.0131 3.37065 16.5103 4.39264C18.0075 5.41463 19.1132 6.91479 19.6462 8.64736C20.1793 10.3799 20.1082 12.2422 19.4445 13.929C18.7808 15.6159 17.5639 17.0273 15.9931 17.9322C14.4224 18.837 12.5909 19.1815 10.7987 18.9093" stroke="#33343C" stroke-width="1.6" stroke-linecap="square"/>
</svg>
