<svg width="26" height="26" viewBox="0 0 26 26" fill="none" xmlns="http://www.w3.org/2000/svg">
<path d="M10.8181 1L10.8182 0.5H10.8181V1ZM20.6363 10.8181H21.1363V10.8181L20.6363 10.8181ZM18.4966 17.7896C18.3014 17.5943 17.9848 17.5943 17.7895 17.7896C17.5943 17.9848 17.5943 18.3014 17.7895 18.4967L18.4966 17.7896ZM24.6464 25.3536C24.8417 25.5488 25.1582 25.5488 25.3535 25.3536C25.5488 25.1583 25.5488 24.8417 25.3535 24.6464L24.6464 25.3536ZM10.8181 0.5C8.7774 0.5 6.78249 1.10515 5.08569 2.23892L5.64126 3.07039C7.17361 2.0465 8.97518 1.5 10.8181 1.5V0.5ZM5.08569 2.23892C3.38888 3.37269 2.06638 4.98416 1.28542 6.86955L2.2093 7.25223C2.91457 5.54957 4.1089 4.09428 5.64126 3.07039L5.08569 2.23892ZM1.28542 6.86955C0.50447 8.75494 0.300137 10.8296 0.698264 12.8311L1.67905 12.636C1.31951 10.8285 1.50404 8.9549 2.2093 7.25223L1.28542 6.86955ZM0.698264 12.8311C1.09639 14.8326 2.0791 16.6711 3.52211 18.1141L4.22922 17.407C2.92606 16.1039 2.03859 14.4435 1.67905 12.636L0.698264 12.8311ZM3.52211 18.1141C4.96513 19.5572 6.80364 20.5399 8.80516 20.938L9.00025 19.9572C7.19271 19.5977 5.53238 18.7102 4.22922 17.407L3.52211 18.1141ZM8.80516 20.938C10.8067 21.3361 12.8813 21.1318 14.7667 20.3508L14.384 19.4269C12.6814 20.1322 10.8078 20.3167 9.00025 19.9572L8.80516 20.938ZM14.7667 20.3508C16.6521 19.5699 18.2636 18.2474 19.3973 16.5506L18.5659 15.995C17.542 17.5274 16.0867 18.7217 14.384 19.4269L14.7667 20.3508ZM19.3973 16.5506C20.5311 14.8538 21.1363 12.8589 21.1363 10.8181H20.1363C20.1363 12.6611 19.5898 14.4626 18.5659 15.995L19.3973 16.5506ZM21.1363 10.8181C21.1361 8.08162 20.0489 5.45727 18.114 3.52229L17.4069 4.2294C19.1543 5.97686 20.1361 8.34688 20.1363 10.8182L21.1363 10.8181ZM18.114 3.52229C16.179 1.58731 13.5546 0.500174 10.8182 0.5L10.8181 1.5C13.2894 1.50016 15.6594 2.48194 17.4069 4.2294L18.114 3.52229ZM17.7895 18.4967L24.6464 25.3536L25.3535 24.6464L18.4966 17.7896L17.7895 18.4967Z" fill="black"/>
</svg>
