<svg width="24" height="24" viewBox="0 0 24 24" fill="none" xmlns="http://www.w3.org/2000/svg">
<path d="M14.018 2.1801H13.318V2.21501L13.3215 2.24975L14.018 2.1801ZM14.018 2.18009H14.718V2.14517L14.7145 2.11043L14.018 2.18009ZM14.3795 5.79484L13.683 5.86449L13.683 5.86449L14.3795 5.79484ZM14.4593 6.06277L14.1914 6.70948L14.1914 6.70949L14.4593 6.06277ZM14.7051 5.92973L14.2619 5.38796L14.2619 5.38796L14.7051 5.92973ZM17.5167 3.62934L17.0735 3.08757L17.0735 3.08757L17.5167 3.62934ZM17.7848 3.64271L17.2898 4.13768L17.2898 4.13768L17.7848 3.64271ZM20.3573 6.21517L19.8623 6.71014L19.8623 6.71015L20.3573 6.21517ZM20.3706 6.48324L19.8289 6.03996L19.8289 6.03997L20.3706 6.48324ZM18.0702 9.29485L18.612 9.73812L18.612 9.73812L18.0702 9.29485ZM17.9372 9.54072L17.2905 9.8086L17.2905 9.80861L17.9372 9.54072ZM18.2051 9.62051L18.1355 10.317L18.1355 10.317L18.2051 9.62051ZM21.8199 14.018L21.7503 13.3215L21.7502 13.3215L21.8199 14.018ZM18.2055 14.3795L18.2751 15.076L18.2751 15.076L18.2055 14.3795ZM17.9376 14.4592L17.2908 14.1914L17.2908 14.1914L17.9376 14.4592ZM18.0706 14.7051L18.6124 14.2618L18.6124 14.2618L18.0706 14.7051ZM20.3707 17.5163L20.9124 17.0731L20.9124 17.0731L20.3707 17.5163ZM17.6551 20.45L17.6203 19.7509L17.6202 19.7509L17.6551 20.45ZM17.5168 20.3702L17.0735 20.912L17.0735 20.912L17.5168 20.3702ZM14.7052 18.0698L14.2619 18.6116L14.2619 18.6116L14.7052 18.0698ZM14.4593 17.9368L14.1914 17.2901L14.1914 17.2901L14.4593 17.9368ZM14.3795 18.2047L13.683 18.1351L13.683 18.1351L14.3795 18.2047ZM14.018 21.8199L13.3215 21.7502L13.3215 21.7502L14.018 21.8199ZM13.9766 21.9741L13.5069 21.4551L13.5069 21.4551L13.9766 21.9741ZM10.0234 21.9741L10.4931 21.4551L10.4931 21.4551L10.0234 21.9741ZM9.98199 21.8199L10.6785 21.7502L10.6785 21.7502L9.98199 21.8199ZM9.62051 18.2051L10.317 18.1355L10.317 18.1355L9.62051 18.2051ZM9.54073 17.9372L9.80861 17.2905L9.8086 17.2905L9.54073 17.9372ZM9.29486 18.0702L9.73812 18.612L9.73812 18.612L9.29486 18.0702ZM6.48319 20.3707L6.92646 20.9124L6.92646 20.9124L6.48319 20.3707ZM6.34485 20.4505L6.37974 19.7513L6.3797 19.7513L6.34485 20.4505ZM6.21512 20.3573L5.72015 20.8523L5.72015 20.8523L6.21512 20.3573ZM3.64267 17.7848L4.13764 17.2899L4.13764 17.2899L3.64267 17.7848ZM3.6293 17.5168L3.08753 17.0735L3.08753 17.0735L3.6293 17.5168ZM5.92973 14.7051L5.38796 14.2619L5.38796 14.2619L5.92973 14.7051ZM6.06276 14.4593L6.70948 14.1914L6.70948 14.1914L6.06276 14.4593ZM5.79483 14.3795L5.86449 13.683L5.86449 13.683L5.79483 14.3795ZM2.1801 14.018L2.24975 13.3215L2.21501 13.318H2.1801V14.018ZM2.18009 14.018L2.11044 14.7145L2.14518 14.718H2.18009V14.018ZM2.02585 13.9766L1.50684 14.4463L1.50684 14.4463L2.02585 13.9766ZM2.02585 10.0234L2.54487 10.4931L2.54487 10.4931L2.02585 10.0234ZM2.1801 9.98199L2.11045 9.28546L2.11044 9.28546L2.1801 9.98199ZM5.79521 9.62048L5.86486 10.317L5.86486 10.317L5.79521 9.62048ZM6.06314 9.54069L5.41642 9.27281L5.41642 9.27282L6.06314 9.54069ZM5.9301 9.29482L5.38833 9.73809L5.38833 9.73809L5.9301 9.29482ZM3.62934 6.48278L4.17111 6.03952L4.17111 6.03952L3.62934 6.48278ZM3.64271 6.21471L3.14774 5.71974L3.14774 5.71974L3.64271 6.21471ZM6.21517 3.64226L5.72019 3.14728L5.72019 3.14728L6.21517 3.64226ZM6.48324 3.62889L6.9265 3.08712L6.9265 3.08712L6.48324 3.62889ZM9.2949 5.92934L9.73817 5.38757L9.73817 5.38757L9.2949 5.92934ZM9.54077 6.06238L9.27289 5.41566L9.27289 5.41566L9.54077 6.06238ZM9.62056 5.79445L10.3171 5.8641L10.3171 5.8641L9.62056 5.79445ZM9.98199 2.1801L10.6785 2.24975L10.6785 2.24975L9.98199 2.1801ZM10.0234 2.02585L10.4931 2.54488L10.4931 2.54486L10.0234 2.02585ZM13.9766 2.02585L13.5069 2.54487L13.5069 2.54487L13.9766 2.02585ZM14.718 2.1801V2.18009H13.318V2.1801H14.718ZM15.076 5.72519L14.7145 2.11045L13.3215 2.24975L13.683 5.86449L15.076 5.72519ZM14.7272 5.41606C14.8571 5.4699 14.9518 5.5597 15.0114 5.65072C15.0624 5.72861 15.0796 5.7947 15.0836 5.81069C15.0883 5.82942 15.0882 5.83565 15.0855 5.8144C15.083 5.79448 15.0804 5.76881 15.076 5.72519L13.683 5.86449C13.6888 5.92251 13.6993 6.04631 13.7259 6.15226C13.7528 6.25919 13.8485 6.56747 14.1914 6.70948L14.7272 5.41606ZM14.2619 5.38796C14.2279 5.41572 14.2079 5.43202 14.1921 5.44432C14.1751 5.45744 14.1795 5.45296 14.196 5.44304C14.2102 5.43458 14.2691 5.40001 14.3602 5.381C14.4668 5.35879 14.5972 5.36221 14.7271 5.41605L14.1914 6.70949C14.5342 6.8515 14.8199 6.70119 14.9145 6.6446C15.0083 6.58853 15.1033 6.50842 15.1484 6.4715L14.2619 5.38796ZM17.0735 3.08757L14.2619 5.38796L15.1484 6.4715L17.96 4.17111L17.0735 3.08757ZM17.69 2.85042C17.4731 2.8396 17.3116 2.92096 17.2261 2.97431C17.1575 3.01709 17.0923 3.07218 17.0735 3.08757L17.96 4.17111C17.9786 4.15591 17.986 4.1499 17.991 4.14603C17.9961 4.14202 17.9859 4.15037 17.9668 4.16228C17.9242 4.18888 17.7986 4.25758 17.6202 4.24868L17.69 2.85042ZM18.2798 3.14773C18.2626 3.13055 18.2032 3.06925 18.1392 3.01986C18.0594 2.95826 17.9068 2.86124 17.69 2.85042L17.6202 4.24868C17.4418 4.23978 17.3237 4.15893 17.2839 4.12822C17.2661 4.11447 17.2568 4.10515 17.2615 4.10965C17.2661 4.11399 17.2729 4.12071 17.2898 4.13768L18.2798 3.14773ZM20.8522 5.72019L18.2798 3.14773L17.2898 4.13768L19.8623 6.71014L20.8522 5.72019ZM21.1496 6.31003C21.1387 6.09314 21.0417 5.94059 20.9801 5.86076C20.9307 5.79675 20.8694 5.73737 20.8522 5.72018L19.8623 6.71015C19.8793 6.72712 19.886 6.7339 19.8903 6.73846C19.8948 6.74318 19.8855 6.73388 19.8717 6.71605C19.841 6.67626 19.7602 6.55815 19.7513 6.37975L21.1496 6.31003ZM20.9124 6.92651C20.9278 6.9077 20.9829 6.84251 21.0257 6.77391C21.079 6.68835 21.1604 6.5269 21.1496 6.31003L19.7513 6.37975C19.7424 6.20136 19.8111 6.0758 19.8377 6.03315C19.8496 6.01404 19.8579 6.00386 19.8539 6.00901C19.8501 6.01398 19.8441 6.02138 19.8289 6.03996L20.9124 6.92651ZM18.612 9.73812L20.9124 6.9265L19.8289 6.03997L17.5284 8.85159L18.612 9.73812ZM18.5839 9.27285C18.6377 9.40284 18.6412 9.53325 18.6189 9.63976C18.5999 9.73092 18.5654 9.78981 18.5569 9.80397C18.547 9.82054 18.5425 9.82485 18.5556 9.80792C18.5679 9.79205 18.5842 9.77205 18.612 9.73812L17.5284 8.85159C17.4915 8.89671 17.4114 8.99169 17.3553 9.08545C17.2988 9.18008 17.1485 9.46575 17.2905 9.8086L18.5839 9.27285ZM18.2748 8.92398C18.2311 8.91962 18.2055 8.917 18.1856 8.91448C18.1643 8.91179 18.1705 8.91166 18.1893 8.91637C18.2052 8.9204 18.2713 8.9376 18.3492 8.98862C18.4403 9.04823 18.53 9.14286 18.5839 9.27284L17.2905 9.80861C17.4325 10.1515 17.7408 10.2472 17.8477 10.2741C17.9536 10.3007 18.0774 10.3112 18.1355 10.317L18.2748 8.92398ZM21.8896 9.28546L18.2748 8.92398L18.1355 10.317L21.7503 10.6785L21.8896 9.28546ZM22.4932 9.5537C22.3475 9.39269 22.1758 9.33606 22.0775 9.31328C21.9988 9.29502 21.9137 9.28788 21.8896 9.28546L21.7503 10.6785C21.7741 10.6809 21.7836 10.6819 21.7899 10.6827C21.7964 10.6835 21.7832 10.6822 21.7613 10.6771C21.7124 10.6657 21.575 10.6255 21.4551 10.4931L22.4932 9.5537ZM22.7 10.181C22.7 10.1567 22.7014 10.0714 22.691 9.99118C22.6781 9.89118 22.6389 9.71471 22.4932 9.5537L21.4551 10.4931C21.3353 10.3607 21.3089 10.22 21.3025 10.1701C21.2996 10.1478 21.2996 10.1346 21.2998 10.1412C21.3 10.1475 21.3 10.157 21.3 10.181H22.7ZM22.7 13.819V10.181H21.3V13.819H22.7ZM22.4932 14.4463C22.6389 14.2853 22.6781 14.1088 22.691 14.0088C22.7014 13.9286 22.7 13.8433 22.7 13.819H21.3C21.3 13.843 21.3 13.8525 21.2998 13.8588C21.2996 13.8654 21.2996 13.8522 21.3025 13.8299C21.3089 13.78 21.3353 13.6393 21.4551 13.5069L22.4932 14.4463ZM21.8896 14.7145C21.9137 14.7121 21.9988 14.705 22.0775 14.6867C22.1758 14.6639 22.3475 14.6073 22.4932 14.4463L21.4551 13.5069C21.575 13.3745 21.7124 13.3343 21.7613 13.3229C21.7832 13.3178 21.7964 13.3165 21.7899 13.3173C21.7836 13.3181 21.7741 13.3191 21.7503 13.3215L21.8896 14.7145ZM18.2751 15.076L21.8896 14.7145L21.7502 13.3215L18.1358 13.6829L18.2751 15.076ZM18.5843 14.7271C18.5304 14.8571 18.4406 14.9517 18.3496 15.0113C18.2717 15.0624 18.2056 15.0796 18.1896 15.0836C18.1709 15.0883 18.1647 15.0882 18.1859 15.0855C18.2058 15.083 18.2315 15.0803 18.2751 15.076L18.1358 13.6829C18.0778 13.6887 17.954 13.6992 17.8481 13.7259C17.7411 13.7528 17.4329 13.8485 17.2908 14.1914L18.5843 14.7271ZM18.6124 14.2618C18.5846 14.2279 18.5683 14.2079 18.556 14.192C18.5429 14.1751 18.5474 14.1794 18.5573 14.196C18.5657 14.2102 18.6003 14.269 18.6193 14.3602C18.6415 14.4667 18.6381 14.5971 18.5843 14.7271L17.2908 14.1914C17.1488 14.5342 17.2991 14.8199 17.3557 14.9145C17.4118 15.0083 17.4919 15.1032 17.5288 15.1484L18.6124 14.2618ZM20.9124 17.0731L18.6124 14.2618L17.5288 15.1484L19.8289 17.9596L20.9124 17.0731ZM21.1496 17.6895C21.1604 17.4727 21.0791 17.3112 21.0257 17.2257C20.9829 17.1571 20.9278 17.0919 20.9124 17.0731L19.8289 17.9596C19.8441 17.9782 19.8501 17.9856 19.854 17.9905C19.858 17.9957 19.8496 17.9855 19.8377 17.9664C19.8111 17.9238 19.7424 17.7982 19.7513 17.6198L21.1496 17.6895ZM20.8523 18.2794C20.8695 18.2622 20.9308 18.2028 20.9802 18.1388C21.0418 18.059 21.1388 17.9064 21.1496 17.6895L19.7513 17.6198C19.7602 17.4414 19.8411 17.3233 19.8718 17.2835C19.8855 17.2657 19.8949 17.2564 19.8904 17.2611C19.886 17.2657 19.8793 17.2724 19.8623 17.2894L20.8523 18.2794ZM18.2798 20.8518L20.8523 18.2794L19.8623 17.2894L17.2899 19.8619L18.2798 20.8518ZM17.69 21.1491C17.9069 21.1383 18.0594 21.0413 18.1393 20.9797C18.2033 20.9303 18.2626 20.869 18.2798 20.8518L17.2899 19.8619C17.2729 19.8788 17.2661 19.8856 17.2616 19.8899C17.2568 19.8944 17.2661 19.8851 17.284 19.8713C17.3238 19.8406 17.4419 19.7598 17.6203 19.7509L17.69 21.1491ZM17.0735 20.912C17.0923 20.9274 17.1575 20.9825 17.2261 21.0252C17.3117 21.0786 17.4731 21.16 17.69 21.1491L17.6202 19.7509C17.7986 19.742 17.9242 19.8107 17.9669 19.8373C17.986 19.8492 17.9962 19.8575 17.991 19.8535C17.986 19.8497 17.9786 19.8437 17.96 19.8284L17.0735 20.912ZM14.2619 18.6116L17.0735 20.912L17.96 19.8284L15.1485 17.5281L14.2619 18.6116ZM14.7272 18.5835C14.5972 18.6373 14.4668 18.6408 14.3603 18.6186C14.2691 18.5995 14.2102 18.565 14.1961 18.5565C14.1795 18.5466 14.1752 18.5421 14.1921 18.5552C14.208 18.5675 14.228 18.5838 14.2619 18.6116L15.1485 17.5281C15.1033 17.4911 15.0084 17.411 14.9146 17.355C14.82 17.2984 14.5343 17.1481 14.1914 17.2901L14.7272 18.5835ZM15.0761 18.2744C15.0804 18.2307 15.083 18.2051 15.0856 18.1852C15.0883 18.1639 15.0884 18.1701 15.0837 18.1889C15.0796 18.2049 15.0624 18.2709 15.0114 18.3488C14.9518 18.4399 14.8572 18.5297 14.7272 18.5835L14.1914 17.2901C13.8486 17.4321 13.7529 17.7404 13.726 17.8473C13.6993 17.9532 13.6888 18.077 13.683 18.1351L15.0761 18.2744ZM14.7145 21.8896L15.0761 18.2744L13.683 18.1351L13.3215 21.7502L14.7145 21.8896ZM14.4463 22.4932C14.6073 22.3475 14.6639 22.1758 14.6867 22.0775C14.705 21.9988 14.7121 21.9137 14.7145 21.8896L13.3215 21.7502C13.3191 21.7741 13.3181 21.7836 13.3173 21.7899C13.3165 21.7963 13.3178 21.7832 13.3229 21.7613C13.3343 21.7124 13.3745 21.575 13.5069 21.4551L14.4463 22.4932ZM13.819 22.7C13.8433 22.7 13.9286 22.7014 14.0088 22.691C14.1088 22.6781 14.2853 22.6389 14.4463 22.4931L13.5069 21.4551C13.6393 21.3353 13.78 21.3089 13.8299 21.3025C13.8522 21.2996 13.8654 21.2996 13.8588 21.2998C13.8525 21.3 13.843 21.3 13.819 21.3V22.7ZM10.181 22.7H13.819V21.3H10.181V22.7ZM9.55368 22.4931C9.71468 22.6389 9.89117 22.6781 9.99117 22.691C10.0714 22.7014 10.1567 22.7 10.181 22.7V21.3C10.157 21.3 10.1475 21.3 10.1412 21.2998C10.1346 21.2996 10.1478 21.2996 10.1701 21.3025C10.22 21.3089 10.3607 21.3353 10.4931 21.4551L9.55368 22.4931ZM9.28547 21.8896C9.28788 21.9137 9.29502 21.9988 9.31328 22.0775C9.33606 22.1758 9.39269 22.3475 9.55371 22.4932L10.4931 21.4551C10.6255 21.575 10.6657 21.7123 10.6771 21.7613C10.6822 21.7832 10.6835 21.7963 10.6827 21.7899C10.6819 21.7836 10.6809 21.7741 10.6785 21.7502L9.28547 21.8896ZM8.92399 18.2748L9.28547 21.8896L10.6785 21.7502L10.317 18.1355L8.92399 18.2748ZM9.27285 18.5839C9.14286 18.5301 9.04823 18.4403 8.98862 18.3492C8.93761 18.2713 8.9204 18.2053 8.91638 18.1893C8.91167 18.1705 8.91179 18.1643 8.91448 18.1856C8.91701 18.2055 8.91962 18.2311 8.92399 18.2748L10.317 18.1355C10.3112 18.0774 10.3007 17.9536 10.2741 17.8477C10.2472 17.7408 10.1515 17.4325 9.80861 17.2905L9.27285 18.5839ZM9.73812 18.612C9.77205 18.5842 9.79206 18.5679 9.80793 18.5556C9.82486 18.5425 9.82054 18.547 9.80397 18.5569C9.78981 18.5654 9.73092 18.5999 9.63976 18.6189C9.53325 18.6412 9.40284 18.6377 9.27286 18.5839L9.8086 17.2905C9.46576 17.1485 9.18009 17.2988 9.08545 17.3554C8.99169 17.4114 8.89672 17.4915 8.85159 17.5284L9.73812 18.612ZM6.92646 20.9124L9.73812 18.612L8.85159 17.5284L6.03993 19.8289L6.92646 20.9124ZM6.30995 21.1496C6.52685 21.1604 6.68831 21.079 6.77386 21.0257C6.84246 20.9829 6.90766 20.9278 6.92646 20.9124L6.03993 19.8289C6.02135 19.8441 6.01394 19.8501 6.00897 19.854C6.00382 19.858 6.014 19.8496 6.0331 19.8377C6.07575 19.8111 6.20133 19.7424 6.37974 19.7513L6.30995 21.1496ZM5.72015 20.8523C5.73733 20.8695 5.79671 20.9308 5.86072 20.9802C5.94055 21.0418 6.0931 21.1388 6.30999 21.1496L6.3797 19.7513C6.5581 19.7602 6.67621 19.8411 6.71601 19.8718C6.73383 19.8855 6.74313 19.8949 6.73841 19.8904C6.73385 19.886 6.72707 19.8793 6.7101 19.8623L5.72015 20.8523ZM3.14769 18.2798L5.72015 20.8523L6.7101 19.8623L4.13764 17.2899L3.14769 18.2798ZM2.85038 17.69C2.86119 17.9069 2.95821 18.0594 3.01981 18.1392C3.0692 18.2033 3.13051 18.2626 3.14769 18.2798L4.13764 17.2899C4.12066 17.2729 4.11395 17.2661 4.10961 17.2616C4.10511 17.2568 4.11443 17.2661 4.12818 17.284C4.15889 17.3238 4.23974 17.4419 4.24864 17.6203L2.85038 17.69ZM3.08753 17.0735C3.07214 17.0923 3.01704 17.1575 2.97427 17.2261C2.92092 17.3117 2.83956 17.4731 2.85038 17.69L4.24864 17.6203C4.25754 17.7986 4.18884 17.9242 4.16224 17.9669C4.15033 17.986 4.14198 17.9961 4.14599 17.991C4.14986 17.986 4.15586 17.9786 4.17107 17.96L3.08753 17.0735ZM5.38796 14.2619L3.08753 17.0735L4.17107 17.96L6.4715 15.1484L5.38796 14.2619ZM5.41605 14.7271C5.3622 14.5972 5.35879 14.4667 5.381 14.3602C5.40001 14.2691 5.43457 14.2102 5.44304 14.196C5.45295 14.1795 5.45744 14.1751 5.44432 14.1921C5.43202 14.2079 5.41571 14.2279 5.38796 14.2619L6.47149 15.1484C6.50841 15.1033 6.58852 15.0083 6.64459 14.9145C6.70119 14.8199 6.85149 14.5342 6.70948 14.1914L5.41605 14.7271ZM5.72518 15.076C5.7688 15.0804 5.79447 15.083 5.81439 15.0855C5.83564 15.0882 5.82942 15.0883 5.81069 15.0836C5.79469 15.0796 5.72861 15.0624 5.65071 15.0114C5.55969 14.9518 5.46989 14.8571 5.41605 14.7271L6.70948 14.1914C6.56747 13.8485 6.25919 13.7528 6.15225 13.7259C6.0463 13.6993 5.9225 13.6888 5.86449 13.683L5.72518 15.076ZM2.11045 14.7145L5.72518 15.076L5.86449 13.683L2.24975 13.3215L2.11045 14.7145ZM2.18009 14.718H2.1801V13.318H2.18009V14.718ZM1.50684 14.4463C1.65255 14.6073 1.82423 14.6639 1.92246 14.6867C2.00121 14.705 2.08626 14.7121 2.11044 14.7145L2.24975 13.3215C2.22586 13.3191 2.21638 13.3181 2.21013 13.3173C2.20365 13.3165 2.21676 13.3178 2.23869 13.3229C2.28765 13.3343 2.42502 13.3745 2.54487 13.5069L1.50684 14.4463ZM1.3 13.819C1.3 13.8433 1.29864 13.9286 1.30897 14.0088C1.32186 14.1088 1.36113 14.2853 1.50684 14.4463L2.54487 13.5069C2.66473 13.6393 2.69107 13.78 2.69749 13.8299C2.70037 13.8522 2.70036 13.8654 2.7002 13.8588C2.70004 13.8525 2.7 13.843 2.7 13.819H1.3ZM1.3 10.181V13.819H2.7V10.181H1.3ZM1.50684 9.55369C1.36113 9.7147 1.32186 9.89117 1.30897 9.99117C1.29864 10.0714 1.3 10.1567 1.3 10.181H2.7C2.7 10.157 2.70004 10.1475 2.7002 10.1412C2.70036 10.1346 2.70037 10.1478 2.69749 10.1701C2.69106 10.22 2.66472 10.3607 2.54487 10.4931L1.50684 9.55369ZM2.11044 9.28546C2.08627 9.28788 2.00121 9.29502 1.92246 9.31328C1.82424 9.33605 1.65255 9.39269 1.50684 9.55369L2.54487 10.4931C2.42502 10.6255 2.28765 10.6657 2.23869 10.6771C2.21676 10.6822 2.20365 10.6835 2.21013 10.6827C2.21638 10.6819 2.22587 10.6809 2.24976 10.6785L2.11044 9.28546ZM5.72556 8.92395L2.11045 9.28546L2.24975 10.6785L5.86486 10.317L5.72556 8.92395ZM5.41642 9.27282C5.47027 9.14283 5.56006 9.0482 5.65108 8.98858C5.72898 8.93757 5.79507 8.92037 5.81106 8.91634C5.82979 8.91163 5.83602 8.91175 5.81477 8.91445C5.79485 8.91697 5.76918 8.91959 5.72556 8.92395L5.86486 10.317C5.92288 10.3112 6.04668 10.3007 6.15263 10.274C6.25956 10.2471 6.56784 10.1514 6.70986 9.80857L5.41642 9.27282ZM5.38833 9.73809C5.41609 9.77202 5.43239 9.79202 5.44469 9.80789C5.45781 9.82482 5.45332 9.82051 5.44341 9.80393C5.43495 9.78977 5.40038 9.73088 5.38137 9.63973C5.35916 9.53321 5.36258 9.4028 5.41642 9.27281L6.70985 9.80857C6.85187 9.46572 6.70156 9.18006 6.64497 9.08542C6.5889 8.99165 6.50879 8.89668 6.47187 8.85156L5.38833 9.73809ZM3.08757 6.92605L5.38833 9.73809L6.47187 8.85156L4.17111 6.03952L3.08757 6.92605ZM2.85042 6.30957C2.83961 6.52645 2.92096 6.6879 2.97431 6.77345C3.01709 6.84205 3.07219 6.90725 3.08757 6.92605L4.17111 6.03952C4.15591 6.02093 4.1499 6.01353 4.14603 6.00856C4.14203 6.00341 4.15037 6.01359 4.16229 6.03269C4.18888 6.07534 4.25758 6.20091 4.24868 6.3793L2.85042 6.30957ZM3.14774 5.71974C3.13056 5.73692 3.06925 5.7963 3.01986 5.86031C2.95826 5.94013 2.86124 6.09269 2.85042 6.30957L4.24868 6.3793C4.23979 6.5577 4.15893 6.67581 4.12823 6.7156C4.11447 6.73342 4.10515 6.74272 4.10965 6.738C4.114 6.73344 4.12071 6.72666 4.13769 6.70969L3.14774 5.71974ZM5.72019 3.14728L3.14774 5.71974L4.13769 6.70969L6.71014 4.13723L5.72019 3.14728ZM6.31002 2.84997C6.09314 2.86078 5.94059 2.9578 5.86076 3.0194C5.79676 3.06879 5.73737 3.1301 5.72019 3.14728L6.71014 4.13723C6.72712 4.12025 6.73389 4.11354 6.73845 4.1092C6.74318 4.1047 6.73388 4.11402 6.71605 4.12777C6.67626 4.15848 6.55816 4.23933 6.37976 4.24823L6.31002 2.84997ZM6.9265 3.08712C6.9077 3.07173 6.84251 3.01664 6.77391 2.97386C6.68835 2.92051 6.5269 2.83915 6.31002 2.84997L6.37976 4.24823C6.20136 4.25713 6.0758 4.18843 6.03315 4.16183C6.01405 4.14992 6.00386 4.14157 6.00901 4.14558C6.01398 4.14945 6.02139 4.15545 6.03997 4.17066L6.9265 3.08712ZM9.73817 5.38757L6.9265 3.08712L6.03997 4.17066L8.85164 6.47111L9.73817 5.38757ZM9.27289 5.41566C9.40288 5.36182 9.53329 5.3584 9.6398 5.38061C9.73096 5.39962 9.78985 5.43418 9.80401 5.44265C9.82059 5.45256 9.8249 5.45705 9.80797 5.44393C9.7921 5.43163 9.7721 5.41533 9.73817 5.38757L8.85164 6.47111C8.89676 6.50803 8.99173 6.58814 9.0855 6.64421C9.18014 6.7008 9.46581 6.8511 9.80865 6.70909L9.27289 5.41566ZM8.92403 5.72479C8.91967 5.76841 8.91705 5.79408 8.91453 5.814C8.91183 5.83525 8.91171 5.82903 8.91642 5.8103C8.92045 5.79431 8.93765 5.72822 8.98866 5.65032C9.04827 5.5593 9.1429 5.4695 9.27289 5.41566L9.80865 6.70909C10.1515 6.56708 10.2472 6.2588 10.2741 6.15186C10.3008 6.04592 10.3113 5.92211 10.3171 5.8641L8.92403 5.72479ZM9.28547 2.11045L8.92403 5.72479L10.3171 5.8641L10.6785 2.24975L9.28547 2.11045ZM9.5537 1.50683C9.39269 1.65254 9.33606 1.82424 9.31328 1.92246C9.29502 2.00122 9.28788 2.08627 9.28547 2.11045L10.6785 2.24975C10.6809 2.22586 10.6819 2.21638 10.6827 2.21013C10.6835 2.20365 10.6822 2.21676 10.6771 2.23869C10.6657 2.28765 10.6255 2.42502 10.4931 2.54488L9.5537 1.50683ZM10.181 1.3C10.1567 1.3 10.0714 1.29864 9.99118 1.30897C9.89118 1.32186 9.7147 1.36113 9.55369 1.50685L10.4931 2.54486C10.3607 2.66473 10.22 2.69107 10.1701 2.69749C10.1478 2.70037 10.1346 2.70036 10.1412 2.7002C10.1475 2.70004 10.157 2.7 10.181 2.7V1.3ZM13.819 1.3H10.181V2.7H13.819V1.3ZM14.4463 1.50684C14.2853 1.36113 14.1088 1.32186 14.0088 1.30897C13.9286 1.29864 13.8433 1.3 13.819 1.3V2.7C13.843 2.7 13.8525 2.70004 13.8588 2.7002C13.8654 2.70036 13.8522 2.70037 13.8299 2.69749C13.78 2.69106 13.6393 2.66472 13.5069 2.54487L14.4463 1.50684ZM14.7145 2.11043C14.7121 2.08625 14.705 2.0012 14.6867 1.92245C14.6639 1.82423 14.6073 1.65254 14.4463 1.50684L13.5069 2.54487C13.3745 2.42502 13.3343 2.28766 13.3229 2.2387C13.3178 2.21677 13.3165 2.20366 13.3173 2.21013C13.3181 2.21638 13.3191 2.22587 13.3215 2.24975L14.7145 2.11043ZM14.3 12C14.3 13.2703 13.2703 14.3 12 14.3V15.7C14.0435 15.7 15.7 14.0435 15.7 12H14.3ZM12 9.7C13.2703 9.7 14.3 10.7297 14.3 12H15.7C15.7 9.95655 14.0435 8.3 12 8.3V9.7ZM9.7 12C9.7 10.7297 10.7297 9.7 12 9.7V8.3C9.95655 8.3 8.3 9.95655 8.3 12H9.7ZM12 14.3C10.7297 14.3 9.7 13.2703 9.7 12H8.3C8.3 14.0435 9.95655 15.7 12 15.7V14.3Z" fill="#33343C"/>
</svg>
