<svg width="24" height="24" viewBox="0 0 24 24" fill="none" xmlns="http://www.w3.org/2000/svg">
<path d="M12.1589 8.57741C11.4533 8.50772 10.7433 8.65784 10.1263 9.00722C9.50927 9.3566 9.01531 9.88816 8.71205 10.5291C8.4088 11.1701 8.31107 11.8891 8.43225 12.5878C8.55343 13.2864 8.88759 13.9305 9.38899 14.4319C9.89038 14.9333 10.5345 15.2675 11.2332 15.3887C11.9318 15.5098 12.6508 15.4121 13.2918 15.1089C13.9328 14.8056 14.4643 14.3116 14.8137 13.6946C15.1631 13.0776 15.3132 12.3676 15.2435 11.662C15.1641 10.8709 14.8135 10.1317 14.2514 9.56953C13.6892 9.00737 12.95 8.65686 12.1589 8.57741ZM20.44 12C20.4378 12.3738 20.4103 12.7471 20.3578 13.1172L22.7873 15.0228C22.8931 15.1105 22.9644 15.2328 22.9885 15.3681C23.0126 15.5034 22.9879 15.6428 22.9189 15.7617L20.6206 19.7383C20.5508 19.856 20.4417 19.9453 20.3125 19.9904C20.1833 20.0355 20.0423 20.0336 19.9144 19.985L17.5016 19.0134C17.3685 18.9604 17.2244 18.9413 17.0821 18.9577C16.9399 18.9741 16.8039 19.0255 16.6864 19.1074C16.3181 19.361 15.9312 19.5863 15.5289 19.7813C15.4024 19.8428 15.293 19.9345 15.2103 20.0482C15.1276 20.162 15.0743 20.2944 15.0549 20.4337L14.6932 23.0072C14.6695 23.1431 14.5993 23.2666 14.4946 23.3565C14.3899 23.4463 14.2572 23.4971 14.1193 23.5H9.52252C9.38686 23.4977 9.25604 23.4492 9.15161 23.3625C9.04719 23.2759 8.9754 23.1562 8.94806 23.0233L8.58694 20.4536C8.56666 20.3127 8.5119 20.1791 8.42752 20.0645C8.34315 19.95 8.23177 19.858 8.1033 19.7969C7.70145 19.6029 7.3158 19.377 6.95007 19.1214C6.83297 19.0399 6.69744 18.9889 6.55569 18.9728C6.41394 18.9568 6.27043 18.9763 6.13809 19.0295L3.72577 20.0006C3.59793 20.0492 3.45702 20.0512 3.32784 20.0062C3.19867 19.9612 3.08953 19.872 3.01965 19.7544L0.721263 15.7778C0.652162 15.659 0.627469 15.5195 0.651579 15.3842C0.675689 15.2489 0.747038 15.1265 0.852922 15.0389L2.90626 13.4268C3.01876 13.3375 3.10717 13.2215 3.16347 13.0893C3.21978 12.9572 3.2422 12.8131 3.22869 12.6701C3.20935 12.446 3.19752 12.2225 3.19752 11.9984C3.19752 11.7743 3.20881 11.554 3.22869 11.3347C3.24072 11.1926 3.21721 11.0497 3.16026 10.9189C3.10332 10.7882 3.01474 10.6736 2.9025 10.5856L0.850235 8.97346C0.746069 8.88538 0.676223 8.76345 0.652937 8.62904C0.629651 8.49463 0.65441 8.35631 0.722875 8.23832L3.02126 4.26168C3.09106 4.14399 3.20017 4.05471 3.32934 4.00959C3.45852 3.96446 3.59949 3.96639 3.72738 4.01502L6.14023 4.98661C6.27329 5.03959 6.41742 5.05873 6.55969 5.04232C6.70196 5.02591 6.83794 4.97445 6.95545 4.89257C7.32369 4.63899 7.71064 4.41372 8.11297 4.21869C8.23946 4.15721 8.34886 4.06554 8.43152 3.95176C8.51419 3.83798 8.56756 3.7056 8.58694 3.56631L8.9486 0.99278C8.97235 0.856866 9.04257 0.73342 9.14725 0.643539C9.25193 0.553658 9.38458 0.502921 9.52252 0.5H14.1193C14.255 0.502347 14.3858 0.550837 14.4902 0.637481C14.5946 0.724125 14.6664 0.843754 14.6938 0.976659L15.0549 3.54643C15.0752 3.68726 15.1299 3.82089 15.2143 3.93546C15.2987 4.05002 15.4101 4.14196 15.5385 4.20311C15.9404 4.39708 16.326 4.62297 16.6918 4.8786C16.8089 4.96007 16.9444 5.01113 17.0861 5.02717C17.2279 5.04321 17.3714 5.02374 17.5037 4.97049L19.9161 3.99944C20.0439 3.95076 20.1848 3.94875 20.314 3.99378C20.4432 4.0388 20.5523 4.12796 20.6222 4.24556L22.9206 8.2222C22.9897 8.34101 23.0144 8.48048 22.9902 8.61579C22.9661 8.7511 22.8948 8.87347 22.7889 8.9611L20.7356 10.5732C20.6226 10.6623 20.5336 10.7781 20.4769 10.9103C20.4201 11.0424 20.3973 11.1867 20.4104 11.3299C20.4282 11.5524 20.44 11.7759 20.44 12Z" stroke="white" stroke-linecap="round" stroke-linejoin="round"/>
</svg>
