<svg width="24" height="24" viewBox="0 0 24 24" fill="none" xmlns="http://www.w3.org/2000/svg">
<path fill-rule="evenodd" clip-rule="evenodd" d="M5.17157 3.17157C4 4.34315 4 6.22876 4 10V14C4 17.7712 4 19.6569 5.17157 20.8284C6.34315 22 8.22876 22 12 22C15.7712 22 17.6569 22 18.8284 20.8284C20 19.6569 20 17.7712 20 14V10C20 6.22876 20 4.34315 18.8284 3.17157C17.6569 2 15.7712 2 12 2C8.22876 2 6.34315 2 5.17157 3.17157ZM9.5 8.5H9V9.5H9.5H14.5H15V8.5H14.5H9.5ZM9.5 11.5H9V12.5H9.5H14.5H15V11.5H14.5H9.5ZM9.5 14.5H9V15.5H9.5H12.5H13V14.5H12.5H9.5Z" fill="#33343C"/>
</svg>
